<?xml version="1.0" standalone="no"?>
<!DOCTYPE svg PUBLIC "-//W3C//DTD SVG 1.1//EN" "http://www.w3.org/Graphics/SVG/1.1/DTD/svg11.dtd" >
<svg>
<metadata>
Created by FontForge 20090914 at Wed Apr 24 22:08:54 2013
 By www-data
y
</metadata>
<defs>
<font id="Bauhaus-Light" horiz-adv-x="505" >
  <font-face 
    font-family="Bauhaus"
    font-weight="300"
    font-stretch="normal"
    units-per-em="1000"
    panose-1="0 0 0 0 0 0 0 0 0 0"
    ascent="800"
    descent="-200"
    x-height="445"
    cap-height="639"
    bbox="-10 -191 1041 840"
    underline-thickness="31"
    underline-position="-16"
    unicode-range="U+0020-U+2215"
  />
<missing-glyph horiz-adv-x="811" 
d="M50 0v811h711v-811h-711zM711 50v711h-611v-711h611z" />
    <glyph glyph-name=".notdef" horiz-adv-x="811" 
d="M50 0v811h711v-811h-711zM711 50v711h-611v-711h611z" />
    <glyph glyph-name="space" unicode=" " horiz-adv-x="0" 
 />
    <glyph glyph-name="exclam" unicode="!" horiz-adv-x="223" 
d="M0 103c0 30.667 10.5 54.333 31.5 71s46.5 25 76.5 25c28.667 0 53.667 -8.5 75 -25.5s32 -40.5 32 -70.5v-7c0 -31.333 -11.333 -57 -34 -77c-20 -17.333 -44.333 -26 -73 -26c-29.333 0 -54 9 -74 27c-22.667 20 -34 47.667 -34 83zM22 231.999l-22 407h208l-21 -407
h-165z" />
    <glyph glyph-name="quotedbl" unicode="&#x22;" horiz-adv-x="323" 
d="M5 395v251h122v-251h-122zM177 395v251h122v-251h-122z" />
    <glyph glyph-name="numbersign" unicode="#" horiz-adv-x="486" 
d="M53 2l19 170h-70v96h84l14 105h-76v86h91l21 180h108l-22 -180h79l22 180h108l-22 -180h65v-86h-79l-15 -105h72v-96h-86l-22 -170h-107l21 170h-79l-21 -170h-105zM273 268l14 105h-76l-15 -105h77z" />
    <glyph glyph-name="dollar" unicode="$" horiz-adv-x="448" 
d="M156 2l-151.001 -0.00292969v185h151c30 0 45 6.33301 45 19c0 15.333 -21.833 39.5 -65.5 72.5s-72.834 58.5 -87.501 76.5c-28.667 34.667 -43 74.334 -43 119.001c0 44 16 81 48 111c28.667 26.667 63 42.334 103 47.001v79h93v-72h158v-180h-129
c-11.333 0 -22.166 -2 -32.499 -6s-15.5 -10 -15.5 -18c0 -9.33301 8.66699 -20.333 26 -33c78 -61.333 119.333 -94.666 124 -99.999c36.667 -38 55 -83.667 55 -137c0 -40 -18.167 -77.167 -54.5 -111.5s-80.166 -51.5 -131.499 -51.5v-71h-93v71z" />
    <glyph glyph-name="percent" unicode="%" horiz-adv-x="711" 
d="M-2 481c0 44.667 14 83.332 42 115.999c32 37.333 74.333 56 127 56c46 0 86 -17.667 120 -53c32 -33.333 48 -70.666 48 -111.999c0 -58 -17 -103 -51 -135c-31.333 -29.333 -71.666 -44 -120.999 -44c-44.667 0 -83.334 16.333 -116.001 49s-49 73.667 -49 123z
M127 480.998c0 -13.333 4.16699 -23.833 12.5 -31.5s18.5 -11.5 30.5 -11.5c11.333 0 21.333 3.66699 30 11s13 18 13 32s-4.33301 24.667 -13 32s-18.667 11 -30 11c-12.667 0 -23 -3.5 -31 -10.5s-12 -17.833 -12 -32.5zM354 157.998c0 44.667 13.998 83.333 41.998 116
c32 37.333 75.333 56 130 56c46 0 85 -17 117 -51s48 -72 48 -114c0 -56.667 -17 -101 -51 -133c-31.333 -29.333 -71.666 -44 -120.999 -44c-43.333 0 -81.666 16.333 -114.999 49s-50 73 -50 121zM485.998 157.997c0 -13.333 3.83301 -23.833 11.5 -31.5
s17.167 -11.5 28.5 -11.5c12.667 0 23 3.5 31 10.5s12 17.833 12 32.5c0 13.333 -4.5 23.833 -13.5 31.5s-18.833 11.5 -29.5 11.5s-20 -3.66699 -28 -11s-12 -18 -12 -32zM97.998 1.99707l414 651h86l-416 -651h-84z" />
    <glyph glyph-name="ampersand" unicode="&#x26;" horiz-adv-x="730" 
d="M445 45c-30 -17.333 -61.667 -30.333 -95 -39s-65.333 -13 -96 -13c-71.333 0 -130.666 21 -177.999 63c-50.667 44.667 -76 102.667 -76 174v9c0 45.333 10.667 85 32 119c18 28 43.333 52.333 76 73c-16 16 -29.167 34 -39.5 54s-15.5 38.667 -15.5 56
c0 27.333 11.333 50 34 68c25.333 20 62.666 30 111.999 30h272v-165h-165l151 -180c9.33301 9.33301 14 25.333 14 48c0 10.667 -1.16699 22 -3.5 34s-5.83301 23 -10.5 33l143 72c30.667 -40 46 -87 46 -141c0 -31.333 -6 -61.833 -18 -91.5s-30.667 -57.5 -56 -83.5
l143 -163h-237zM321 187l-99.001 114c-10.667 -8 -19.667 -18 -27 -30s-11 -23.333 -11 -34c0 -14.667 8 -29 24 -43c6.66699 -8 14.334 -14.5 23.001 -19.5s18.667 -7.5 30 -7.5c18 0 38 6.66699 60 20z" />
    <glyph glyph-name="quotesingle" unicode="'" horiz-adv-x="204" 
d="M-7 423l50 223h144l-87 -223h-107z" />
    <glyph glyph-name="parenleft" unicode="(" horiz-adv-x="323" 
d="M211 -189c-68.667 57.333 -121.001 126.668 -157.001 208.001s-54 166.666 -54 255.999c0 88 17 173 51 255s84.667 154 152 216l94 -114c-47.333 -52 -82.666 -108.333 -105.999 -169s-35 -121.667 -35 -183c0 -70.667 13.667 -138.667 41 -204
c25.333 -60.667 61 -114 107 -160z" />
    <glyph glyph-name="parenright" unicode=")" horiz-adv-x="323" 
d="M5 -84c47.333 43.333 82.999 95.334 106.999 156.001s36 124.334 36 191.001c0 70.667 -12.5 139.167 -37.5 205.5s-60.167 123.166 -105.5 170.499l86 107c72.667 -68 127.334 -144.333 164.001 -229c34 -78.667 51 -159.334 51 -242.001
c0 -88 -18.167 -172.333 -54.5 -253s-87.5 -151 -153.5 -211z" />
    <glyph glyph-name="asterisk" unicode="*" horiz-adv-x="385" 
d="M86 467l-86 28l65 108l71 -50l-7 93h122l-7 -93l65 50l62 -108l-77 -28l77 -36l-62 -108l-65 50l7 -86h-122l7 86l-71 -50l-65 108z" />
    <glyph glyph-name="plus" unicode="+" horiz-adv-x="467" 
d="M167 165h-165v122h165v165h122v-165h166v-122h-166v-163h-122v163z" />
    <glyph glyph-name="comma" unicode="," horiz-adv-x="261" 
d="M5 -62l43 270h186l-86 -270h-143z" />
    <glyph glyph-name="hyphen" unicode="-" horiz-adv-x="261" 
d="M0 172v122h251v-122h-251z" />
    <glyph glyph-name="period" unicode="." horiz-adv-x="223" 
d="M-7 103c0 30 10.501 53.5 31.501 70.5s46.167 25.5 75.5 25.5s54.666 -8.5 75.999 -25.5s32 -40.5 32 -70.5v-7c0 -32 -11.333 -57.667 -34 -77c-20 -17.333 -44.667 -26 -74 -26c-28.667 0 -53 9 -73 27c-22.667 20 -34 47.667 -34 83z" />
    <glyph glyph-name="slash" unicode="/" horiz-adv-x="424" 
d="M0 -5l292 658h122l-294 -658h-120z" />
    <glyph glyph-name="zero" unicode="0" 
d="M5 254v162.002c0 68 20.667 123.667 62 167c44.667 46.667 105.334 70 182.001 70c66 0 121.5 -20.333 166.5 -61s67.5 -94.334 67.5 -161.001v-209c0 -68.667 -20.833 -124.834 -62.5 -168.501s-98.834 -65.5 -171.501 -65.5c-71.333 0 -128.333 20.667 -171 62
c-48.667 47.333 -73 115.333 -73 204zM282 215.002v216c0 11.333 -3.83301 20.166 -11.5 26.499s-16.5 9.5 -26.5 9.5s-18.833 -3.16699 -26.5 -9.5s-11.5 -15.166 -11.5 -26.499v-216c0 -14.667 3.83301 -26.667 11.5 -36s16.5 -14 26.5 -14s18.833 4.66699 26.5 14
s11.5 21.333 11.5 36z" />
    <glyph glyph-name="one" unicode="1" horiz-adv-x="304" 
d="M81 2v479h-79v158h280v-637h-201z" />
    <glyph glyph-name="two" unicode="2" horiz-adv-x="486" 
d="M292 165h172v-163h-409c-16.667 0 -31.167 5.5 -43.5 16.5s-18.5 25.5 -18.5 43.5c0 10 2.16699 21 6.5 33s10.833 23.333 19.5 34l237 266c9.33301 8.66699 14 19 14 31c0 10.667 -3.83301 20.167 -11.5 28.5s-18.167 12.5 -31.5 12.5c-12 0 -21.667 -4 -29 -12
s-11 -17 -11 -27c0 -14.667 8.66699 -28 26 -40l-122 -134c-32.667 19.333 -57.167 44.166 -73.5 74.499s-24.5 62.833 -24.5 97.5c0 56.667 20.333 106.334 61 149.001c45.333 47.333 103 71 173 71c76.667 0 138.667 -23.333 186 -70c38.667 -38.667 58 -80 58 -124v-17
c0 -54 -25.333 -108.333 -76 -163z" />
    <glyph glyph-name="three" unicode="3" horiz-adv-x="467" 
d="M-2 2l-0.000976562 176.999h201c16 0 27.833 3.16699 35.5 9.5s11.5 14.5 11.5 24.5c0 11.333 -4.5 22.166 -13.5 32.499s-20.167 15.5 -33.5 15.5h-139v98l146 100h-194v180h313c26 0 50.5 -10.667 73.5 -32s34.5 -46.666 34.5 -75.999c0 -24 -8.66699 -48 -26 -72
c-20.667 -28.667 -52.667 -55 -96 -79c46 -16 81 -40.833 105 -74.5s36 -70.167 36 -109.5c0 -51.333 -19 -95.666 -57 -132.999c-41.333 -40.667 -95.666 -61 -162.999 -61h-234z" />
    <glyph glyph-name="four" unicode="4" horiz-adv-x="529" 
d="M251 2v126.999h-158c-27.333 0 -49.333 8 -66 24s-25 36.667 -25 62c0 24.667 9 53.334 27 86.001l193 338h185l-223 -359h82v79l177 280v-345h71v-165h-71v-127h-192z" />
    <glyph glyph-name="five" unicode="5" horiz-adv-x="448" 
d="M5 2l-0.00195312 176.999h172c14.667 0 25.834 3.83301 33.501 11.5s11.5 16.834 11.5 27.501s-3.66699 20 -11 28c-9.33301 10 -20.666 15 -33.999 15h-165v378h371v-172h-177v-44h19c63.333 0 114.333 -21.667 153 -65c35.333 -40 53 -87.667 53 -143
c0 -58 -19 -106.667 -57 -146c-42.667 -44.667 -101 -67 -175 -67h-194z" />
    <glyph glyph-name="six" unicode="6" horiz-adv-x="486" 
d="M170 639h215.001l-191 -393l-7.5 -20c-1.66699 -4.66699 -2.5 -9.66699 -2.5 -15c0 -13.333 4.66699 -24.333 14 -33s21.333 -13 36 -13c15.333 0 27.166 3.83301 35.499 11.5s12.5 17.5 12.5 29.5c0 13.333 -4.66699 25.333 -14 36c-11.333 12.667 -25 19 -41 19l86 170
c52 -22.667 92 -54.334 120 -95.001c25.333 -36.667 38 -76 38 -118c0 -58 -21 -109 -63 -153c-44.667 -46.667 -100 -70 -166 -70h-12c-70.667 0 -127 21.333 -169 64s-63 95.667 -63 159c0 20.667 2.66699 42.334 8 65.001s13 45.667 23 69z" />
    <glyph glyph-name="seven" unicode="7" horiz-adv-x="448" 
d="M41 2l172 465h-215v172h272c49.333 0 88 -6.83301 116 -20.5s42 -36.5 42 -68.5c0 -9.33301 -0.333008 -16.833 -1 -22.5s-2.66699 -14.167 -6 -25.5l-172 -500h-208z" />
    <glyph glyph-name="eight" unicode="8" horiz-adv-x="486" 
d="M77 359c-15.333 8 -27.998 22.334 -37.998 43.001s-15 43 -15 67c0 46 15.667 84.333 47 115c37.333 36.667 91.666 55 162.999 55c70 0 123.667 -18 161 -54c32 -30.667 48 -68.667 48 -114c0 -22 -5 -43.5 -15 -64.5s-22.667 -36.833 -38 -47.5
c24 -12.667 43.167 -33.834 57.5 -63.501s21.5 -61.167 21.5 -94.5c0 -56.667 -18.667 -104.667 -56 -144c-44 -46 -105 -69 -183 -69h-10c-68.667 0 -124.334 23.333 -167.001 70c-38.667 42.667 -58 92.667 -58 150c0 31.333 7.16699 60.833 21.5 88.5
s34.5 48.5 60.5 62.5zM191.002 438.001c0 -13.333 3.83301 -23.835 11.5 -31.502s16.834 -11.5 27.501 -11.5s20 3.66699 28 11s12 18 12 32c0 14.667 -4 26.334 -12 35.001s-17.333 13 -28 13s-19.834 -4.16699 -27.501 -12.5s-11.5 -20.166 -11.5 -35.499z
M184.002 207.999c0 -14 3.66895 -25 11.002 -33s16.333 -12 27 -12l8 2c13.333 0 24.666 3.66699 33.999 11s14 18 14 32c0 16.667 -5 29.667 -15 39s-22 14 -36 14c-10.667 0 -20.834 -4.5 -30.501 -13.5s-14.5 -20.5 -14.5 -34.5z" />
    <glyph glyph-name="nine" unicode="9" horiz-adv-x="486" 
d="M81 2l187 371c0.666992 1.33301 2.5 6.33301 5.5 15s4.5 16.334 4.5 23.001c0 15.333 -4.16699 28.5 -12.5 39.5s-19.5 16.5 -33.5 16.5s-25.833 -4.5 -35.5 -13.5s-14.5 -19.833 -14.5 -32.5c0 -10.667 4.33301 -20.667 13 -30s21 -15.333 37 -18l-79 -165
c-50.667 16.667 -88.834 43.667 -114.501 81s-38.5 79 -38.5 125c0 59.333 19.333 110.666 58 153.999c42.667 47.333 98.334 71 167.001 71c83.333 0 146.333 -24 189 -72c36.667 -40.667 55 -92.667 55 -156c0 -20 -1.66699 -39.167 -5 -57.5s-9 -35.833 -17 -52.5
l-150 -299h-216z" />
    <glyph glyph-name="colon" unicode=":" horiz-adv-x="223" 
d="M0 352c0 32 10.5 56.333 31.5 73s46.5 25 76.5 25c28 0 52.833 -8.83301 74.5 -26.5s32.5 -41.5 32.5 -71.5v-8c0 -31.333 -10.833 -56.666 -32.5 -75.999s-46.5 -29 -74.5 -29c-29.333 0 -54 9.33301 -74 28c-22.667 21.333 -34 49.666 -34 84.999zM0 96
c0 30 10.668 53.333 32.001 70s46.666 25 75.999 25c28 0 52.833 -8.5 74.5 -25.5s32.5 -40.167 32.5 -69.5v-7c0 -31.333 -11.333 -57 -34 -77c-20 -17.333 -44.333 -26 -73 -26c-29.333 0 -54 9 -74 27c-22.667 20 -34 47.667 -34 83z" />
    <glyph glyph-name="semicolon" unicode=";" horiz-adv-x="261" 
d="M26 352c0 32 10.499 56.333 31.499 73s46.5 25 76.5 25c28.667 0 53.834 -8.66699 75.501 -26s32.5 -41.333 32.5 -72v-8c0 -31.333 -11 -56.666 -33 -75.999s-47 -29 -75 -29c-29.333 0 -54 9.33301 -74 28c-22.667 21.333 -34 49.666 -34 84.999zM4.99902 -62l43 270
h186l-86 -270h-143z" />
    <glyph glyph-name="less" unicode="&#x3c;" horiz-adv-x="486" 
d="M156 232h7l308 112v130l-464 -187v-115l464 -198v129z" />
    <glyph glyph-name="equal" unicode="=" horiz-adv-x="467" 
d="M-2 67v120h459v-120h-459zM-2 268v120h459v-120h-459z" />
    <glyph glyph-name="greater" unicode="&#x3e;" horiz-adv-x="467" 
d="M306 232l-308 127v129l459 -201v-115l-459 -191v122z" />
    <glyph glyph-name="question" unicode="?" horiz-adv-x="467" 
d="M120 103c0 30 10.501 53.5 31.501 70.5s46.167 25.5 75.5 25.5s54.666 -8.5 75.999 -25.5s32 -40.5 32 -70.5v-7c0 -32 -11.333 -57.667 -34 -77c-20 -17.333 -44.667 -26 -74 -26c-28.667 0 -53 9 -73 27c-22.667 20 -34 47.667 -34 83zM141.001 232v170h65
c16.667 0 29.167 3.16699 37.5 9.5s12.5 13.5 12.5 21.5c0 9.33301 -4.5 18.5 -13.5 27.5s-18.833 13.5 -29.5 13.5c-7.33301 0 -14.833 -2.83301 -22.5 -8.5s-14.5 -14.834 -20.5 -27.501l-172 72c21.333 42.667 54.666 76.834 99.999 102.501s92.333 38.5 141 38.5
c42.667 0 81 -9.16699 115 -27.5s60.333 -46.833 79 -85.5c12.667 -29.333 19 -61 19 -95c0 -46.667 -12.333 -86.667 -37 -120c-27.333 -36.667 -63.666 -55 -108.999 -55v-36h-165z" />
    <glyph glyph-name="at" unicode="@" horiz-adv-x="692" 
d="M258 301l-2 -14c0 -18.667 6.5 -34.167 19.5 -46.5s28.167 -18.5 45.5 -18.5c23.333 0 43.833 8.16699 61.5 24.5s28.167 39.5 31.5 69.5v5c0 18 -7.5 33.167 -22.5 45.5s-32.167 18.5 -51.5 18.5c-20 0 -37 -6.33301 -51 -19c-16.667 -15.333 -27 -37 -31 -65zM450 481
l79.0029 -0.00195312l-43 -227l-3 -10c0 -20.667 7.33301 -31 22 -31c15.333 0 30.666 12.333 45.999 37c18.667 30 28 66.333 28 109c0 68 -22 119.333 -66 154c-40 31.333 -94.667 47 -164 47c-68.667 0 -124 -19.333 -166 -58c-47.333 -44 -71 -108.333 -71 -193
c0 -76 27 -135.667 81 -179c48 -38.667 106.333 -58 175 -58c30.667 0 60.167 4.33301 88.5 13s52.5 21 72.5 37h100c-24 -42.667 -62 -76 -114 -100s-108 -36 -168 -36c-92.667 0 -170.334 26.333 -233.001 79c-71.333 60 -107 143.667 -107 251
c0 90.667 30 167.334 90 230.001c63.333 66.667 145 100 245 100h14c94.667 0 170 -24 226 -72c60 -51.333 90 -123 90 -215v-15c0 -62.667 -27.667 -117 -83 -163c-48.667 -40.667 -97.334 -61 -146.001 -61c-18 0 -32.167 3.83301 -42.5 11.5s-15.5 18.834 -15.5 33.501
c-26.667 -28.667 -57.667 -43 -93 -43c-37.333 0 -70.333 14 -99 42c-31.333 30.667 -47 70 -47 118l2 12c0 59.333 21.333 108 64 146c37.333 33.333 78.333 50 123 50c22 0 42.667 -5.16699 62 -15.5s33 -24.833 41 -43.5z" />
    <glyph glyph-name="A" unicode="A" 
d="M0 2v407c0 66 20.667 122 62 168c45.333 50.667 106 76 182 76c68 0 124 -19.333 168 -58c50.667 -44.667 76 -109 76 -193v-400h-201v185h-57v172h57v64c0 14 -4.16699 24.833 -12.5 32.5s-18.5 11.5 -30.5 11.5s-22.167 -3.83301 -30.5 -11.5s-12.5 -18.5 -12.5 -32.5
v-421h-201z" />
    <glyph glyph-name="B" unicode="B" horiz-adv-x="529" 
d="M0 2l-0.000976562 429.003c0 65.333 20.833 117.5 62.5 156.5s99.834 58.5 174.501 58.5h9c67.333 0 122 -22 164 -66c38 -39.333 57 -84.333 57 -135c0 -45.333 -14.667 -79 -44 -101c28 -14.667 49.5 -36.834 64.5 -66.501s22.5 -60.834 22.5 -93.501
c0 -48.667 -14.333 -90.334 -43 -125.001c-32 -38 -73.667 -57 -125 -57h-112v163c24 0 41.833 4.16699 53.5 12.5s17.5 18.5 17.5 30.5c0 12.667 -6 24.667 -18 36s-27.333 17 -46 17h-7v134c12 0 21.667 4 29 12s11 17.333 11 28c0 10 -3 19 -9 27s-14 12 -24 12
c-16 0 -26 -6.16699 -30 -18.5s-6 -34.833 -6 -67.5v-386h-201z" />
    <glyph glyph-name="C" unicode="C" horiz-adv-x="424" 
d="M416 2l-107 0.000976562c-96.667 0 -173.667 32.667 -231 98c-52 59.333 -78 131.333 -78 216c0 86 27 159.667 81 221c60 68 140.667 102 242 102h93v-187h-79c-41.333 0 -73.5 -13.333 -96.5 -40s-34.5 -58 -34.5 -94c0 -36.667 11.667 -68.334 35 -95.001
c26 -29.333 60.333 -44 103 -44h72v-177z" />
    <glyph glyph-name="D" unicode="D" horiz-adv-x="548" 
d="M-2 2l0.000976562 636.999h229c90 0 164 -29.333 222 -88s87 -134.667 87 -228v-17c0 -90.667 -29.333 -164 -88 -220s-132.334 -84 -221.001 -84v185c27.333 0 51 11.333 71 34s30 54.334 30 95.001c0 46.667 -12.667 81.667 -38 105c-22.667 20.667 -53 31 -91 31v-450
h-201z" />
    <glyph glyph-name="E" unicode="E" horiz-adv-x="424" 
d="M411 2h-112.004c-95.333 0 -170.666 32 -225.999 96c-50 58 -75 129 -75 213c0 87.333 26.333 162 79 224c58.667 69.333 137.334 104 236.001 104h98v-165h-64c-31.333 0 -60.666 -7.16699 -87.999 -21.5s-42.666 -33.5 -45.999 -57.5h198v-149h-198
c4 -17.333 14.333 -33.333 31 -48c20 -17.333 43 -26 69 -26h98v-170z" />
    <glyph glyph-name="F" unicode="F" horiz-adv-x="385" 
d="M0 2l0.00195312 450c0 54.667 20.167 99.5 60.5 134.5s94.166 52.5 161.499 52.5h149v-180h-98c-30.667 0 -50.334 -5 -59.001 -15s-13 -28.667 -13 -56h170v-166h-170v-220h-201z" />
    <glyph glyph-name="G" unicode="G" horiz-adv-x="668" 
d="M438 246l-145.997 -0.000976562v156h366c0 -140 -32.667 -245 -98 -315c-57.333 -61.333 -134.666 -92 -231.999 -92c-88.667 0 -165 28 -229 84c-70.667 61.333 -106 141 -106 239v26c0 97.333 37.333 174 112 230c65.333 49.333 142.666 74 231.999 74
c50 0 97.167 -8.83301 141.5 -26.5s80.166 -43.167 107.499 -76.5l-136 -129c-16.667 16.667 -35.334 29.334 -56.001 38.001s-40.334 13 -59.001 13c-38 0 -69.833 -13.833 -95.5 -41.5s-38.5 -64.167 -38.5 -109.5c0 -38 13.667 -70.333 41 -97s58.333 -40 93 -40
c20 0 39.5 5.66699 58.5 17s33.833 28 44.5 50z" />
    <glyph glyph-name="H" unicode="H" 
d="M-5 2v637h201v-223h93v223h201v-637h-201v252h-93v-252h-201z" />
    <glyph glyph-name="I" unicode="I" horiz-adv-x="223" 
d="M5 2v637h201v-637h-201z" />
    <glyph glyph-name="J" unicode="J" horiz-adv-x="342" 
d="M-7 2l-0.000976562 185.001h72c32.667 0 52.334 3 59.001 9s10 22.667 10 50v393h201v-445c0 -56.667 -19.167 -102.834 -57.5 -138.501s-88.5 -53.5 -150.5 -53.5h-134z" />
    <glyph glyph-name="K" unicode="K" 
d="M-2 2l-0.00195312 637.001h201v-237l2 -2c8.66699 0 17.334 10 26.001 30c6 14.667 11 31.667 15 51l47 158h201l-47 -158c-9.33301 -36.667 -19 -64.667 -29 -84c-13.333 -26.667 -28.666 -41.667 -45.999 -45c39.333 -6.66699 68 -23 86 -49
c14.667 -20.667 22 -47.667 22 -81v-220h-201v199c0 21.333 -5 35.666 -15 42.999s-30.333 13 -61 17v-259h-201z" />
    <glyph glyph-name="L" unicode="L" horiz-adv-x="385" 
d="M368 2h-186.001c-52 0 -94.5 18.5 -127.5 55.5s-49.5 82.5 -49.5 136.5v445h194v-364c0 -36 3.33301 -59.667 10 -71s22.334 -17 47.001 -17h112v-185z" />
    <glyph glyph-name="M" unicode="M" horiz-adv-x="749" 
d="M5 2l42.999 536.002c0 33.333 14 60.5 42 81.5s59.333 31.5 94 31.5c30.667 0 57.834 -8.16699 81.501 -24.5s38.834 -40.833 45.501 -73.5l50 -209l58 223c6 24 21.833 43.5 47.5 58.5s53.5 22.5 83.5 22.5c35.333 0 65.333 -9.66699 90 -29
c29.333 -22.667 44 -54.334 44 -95.001l43 -522h-194l-21 371l-79 -328c-3.33301 -16.667 -11.333 -29.5 -24 -38.5s-27 -13.5 -43 -13.5c-15.333 0 -28.833 3.66699 -40.5 11s-18.834 18.666 -21.501 33.999l-84 335l-24 -371h-191z" />
    <glyph glyph-name="N" unicode="N" horiz-adv-x="548" 
d="M0 2l-0.000976562 535.999c0 32 10.667 57.667 32 77s46.666 29 75.999 29c24 0 47 -6.33301 69 -19s39.667 -32 53 -58l98 -208v280h201v-536c0 -37.333 -11 -66.333 -33 -87c-19.333 -18.667 -43.666 -28 -72.999 -28c-22 0 -44.167 6.33301 -66.5 19
s-39.166 30.334 -50.499 53.001l-105 201v-259h-201z" />
    <glyph glyph-name="O" unicode="O" horiz-adv-x="668" 
d="M5 323c0 80 27.665 150.667 82.998 212c62.667 69.333 144.334 104 245.001 104c99.333 0 178 -29.667 236 -89s87 -139.666 87 -240.999c0 -94.667 -32 -173.667 -96 -237c-61.333 -60.667 -134.666 -91 -219.999 -91c-92 0 -170.333 31.667 -235 95
c-66.667 65.333 -100 147.666 -100 246.999zM212.998 309c0 -39.333 12.333 -70.001 37 -92.001c22 -20 49.667 -30 83 -30c32.667 0 60.334 10 83.001 30c26 22.667 39 53.334 39 92.001c0 39.333 -12 69.833 -36 91.5s-52 32.5 -84 32.5
c-32.667 0 -60.334 -10.333 -83.001 -31c-26 -23.333 -39 -54.333 -39 -93z" />
    <glyph glyph-name="P" unicode="P" horiz-adv-x="486" 
d="M-5 2l-0.000976562 435.999c0 48.667 17 95.334 51 140.001c42 54.667 97 82 165 82h14c64.667 0 120.334 -19 167.001 -57c51.333 -42 77 -97 77 -165v-19c0 -62 -18 -113.667 -54 -155c-42 -48.667 -103 -73 -183 -73l-14 3v179l7 -2c16.667 0 30 5.33301 40 16
s15 22.667 15 36c0 12 -3.33301 22.333 -10 31s-17 13 -31 13c-20.667 0 -34.167 -5.66699 -40.5 -17s-9.5 -32 -9.5 -62v-386h-194z" />
    <glyph glyph-name="Q" unicode="Q" horiz-adv-x="668" 
d="M230 2c-58 18.667 -110.666 56.335 -157.999 113.002c-52.667 63.333 -79 130.333 -79 201v14c0 93.333 32 170.5 96 231.5s143.667 91.5 239 91.5c83.333 0 157 -26.667 221 -80c72.667 -60.667 109 -139.334 109 -236.001c0 -90 -23.667 -163.667 -71 -221
c-39.333 -47.333 -97 -85.333 -173 -114v-86h-156v359h149v-53c14 11.333 25 26.166 33 44.499s12 37.833 12 58.5c0 34.667 -10 63.667 -30 87c-22.667 26.667 -54 40 -94 40h-7c-34.667 0 -63.334 -13.5 -86.001 -40.5s-34 -57.167 -34 -90.5
c0 -13.333 2.66699 -26.5 8 -39.5s12.333 -24.833 21 -35.5v-244z" />
    <glyph glyph-name="R" unicode="R" horiz-adv-x="486" 
d="M-2 2l-0.00195312 420.999c0 84 23 144.667 69 182c39.333 32 95 48 167 48c74.667 0 133 -22.333 175 -67c36.667 -38.667 55 -85 55 -139c0 -28 -5.16699 -53 -15.5 -75s-25.166 -38.333 -44.499 -49c49.333 -15.333 74 -56 74 -122v-199h-200v156
c0 28.667 -5 47.667 -15 57c-5.33301 4.66699 -19.666 10.334 -42.999 17.001v148l17 -2c16.667 0 29.167 3.83301 37.5 11.5s12.5 17.5 12.5 29.5c0 12.667 -5 25 -15 37s-22.667 18 -38 18c-28.667 0 -43 -28.667 -43 -86v-386h-193z" />
    <glyph glyph-name="S" unicode="S" horiz-adv-x="448" 
d="M7 2l-0.00195312 185h141c15.333 0 28.833 2.33301 40.5 7s17.5 11.667 17.5 21c0 4 -0.666992 7.33301 -2 10c-4 8.66699 -10.667 15.667 -20 21c-60 42.667 -101.667 77.667 -125 105c-34.667 40.667 -52 84 -52 130l-2 7c0 55.333 26.667 96.333 80 123
c38 18.667 80.667 28 128 28h194v-172h-134c-15.333 0 -27.666 -2.33301 -36.999 -7s-14 -10.334 -14 -17.001c0 -7.33301 7.33301 -16.333 22 -27c72 -55.333 113 -87.666 123 -96.999c40.667 -40 61 -81.667 61 -125v-22c0 -54.667 -23.667 -97.667 -71 -129
c-41.333 -27.333 -91.666 -41 -150.999 -41h-199z" />
    <glyph glyph-name="T" unicode="T" horiz-adv-x="424" 
d="M105 2v457h-107v180h413v-180h-107v-457h-199z" />
    <glyph glyph-name="U" unicode="U" 
d="M5 639h201v-424c0 -13.333 4.16699 -23.833 12.5 -31.5s17.5 -11.5 27.5 -11.5c10.667 0 20.5 3.83301 29.5 11.5s13.5 18.167 13.5 31.5v424h201v-424c0 -70 -19.667 -124.667 -59 -164c-42 -42 -102.667 -63 -182 -63c-74.667 0 -135 23.667 -181 71
c-42 43.333 -63 95.333 -63 156v424z" />
    <glyph glyph-name="V" unicode="V" horiz-adv-x="548" 
d="M0 639l198.997 0.000976562l67 -385l62 385h208l-129 -565c-5.33301 -26.667 -22.666 -47.667 -51.999 -63s-61.666 -23 -96.999 -23s-65.666 7.66699 -90.999 23c-28 17.333 -43.667 40.666 -47 69.999z" />
    <glyph glyph-name="W" unicode="W" horiz-adv-x="773" 
d="M5 639l200.998 -0.00195312v-424c0 -15.333 3.5 -27.5 10.5 -36.5s15.5 -13.5 25.5 -13.5c8.66699 0 16.834 4.66699 24.501 14s11.5 21.333 11.5 36v424h200v-417c0 -16.667 3.83301 -30 11.5 -40s16.834 -15 27.501 -15c9.33301 0 18 4.33301 26 13
s12 20.334 12 35.001v424h201v-445c0 -60.667 -24.667 -111 -74 -151c-45.333 -36.667 -97.333 -55 -156 -55c-28.667 0 -55.834 5.5 -81.501 16.5s-46.167 27.167 -61.5 48.5c-17.333 -19.333 -39.666 -34.166 -66.999 -44.499s-55.333 -15.5 -84 -15.5
c-60 0 -111.667 17.667 -155 53c-48 39.333 -72 91 -72 155v438z" />
    <glyph glyph-name="X" unicode="X" horiz-adv-x="529" 
d="M7 2l0.00292969 176.999l24 -4c34.667 0 65.667 11 93 33c30.667 24.667 46 56.667 46 96v12c0 45.333 -18 79.333 -54 102c-28.667 18 -65 27 -109 27v194h58c39.333 0 79.666 -11.667 120.999 -35c37.333 -21.333 64 -45.666 80 -72.999c18 35.333 48.333 63 91 83
c35.333 16.667 68.666 25 99.999 25h57v-194h-16c-44 0 -78.333 -13.667 -103 -41c-20.667 -22.667 -31 -49.667 -31 -81c0 -50 12.167 -86.5 36.5 -109.5s62.166 -34.5 113.499 -34.5v-177h-69c-42.667 0 -76 6 -100 18s-50.333 35 -79 69
c-28.667 -32 -56.667 -54.5 -84 -67.5s-59.333 -19.5 -96 -19.5h-79z" />
    <glyph glyph-name="Y" unicode="Y" horiz-adv-x="467" 
d="M127 2v213.001c-34 3.33301 -64 19.666 -90 48.999s-39 63.333 -39 102v273h201v-237c0 -10.667 2.66699 -19 8 -25s12 -9 20 -9c19.333 0 29 11.333 29 34v237h201v-259c0 -44.667 -12.667 -81.667 -38 -111c-22.667 -26.667 -53 -44.667 -91 -54v-213h-201z" />
    <glyph glyph-name="Z" unicode="Z" horiz-adv-x="486" 
d="M232 445l-201 -0.000976562v194h299c46 0 82 -15.667 108 -47c22 -26.667 33 -58 33 -94c0 -28 -6.33301 -50.333 -19 -67l-206 -252h228v-177h-352c-42 0 -74 12 -96 36c-18.667 20 -28 45.667 -28 77c0 34.667 8.66699 63.334 26 86.001z" />
    <glyph glyph-name="bracketleft" unicode="[" horiz-adv-x="261" 
d="M0 -153v849h237v-115h-79v-622h79v-112h-237z" />
    <glyph glyph-name="backslash" unicode="\" horiz-adv-x="405" 
d="M268 -5l-270 658h129l270 -658h-129z" />
    <glyph glyph-name="bracketright" unicode="]" horiz-adv-x="261" 
d="M89 -41v630h-79v114h229v-849h-229v105h79z" />
    <glyph glyph-name="asciicircum" unicode="^" horiz-adv-x="467" 
d="M225 524l-101 -215h-122l165 330h122l158 -330h-122z" />
    <glyph glyph-name="underscore" unicode="_" horiz-adv-x="467" 
d="M0 -105v50h457v-50h-457z" />
    <glyph glyph-name="grave" unicode="`" horiz-adv-x="204" 
d="M-7 423l93 216h108l-50 -216h-151z" />
    <glyph glyph-name="a" unicode="a" horiz-adv-x="529" 
d="M292 179l0.000976562 -177.001l-60 -4c-68 0 -123.667 21.333 -167 64s-65 99.334 -65 170.001c0 75.333 24.333 134 73 176c45.333 39.333 104.666 59 177.999 59c80 0 144 -27.667 192 -83c42.667 -49.333 64 -108 64 -176v-206h-186v230
c0 21.333 -6.83301 37.5 -20.5 48.5s-30.167 16.5 -49.5 16.5c-18 0 -33.667 -5 -47 -15s-20 -24.333 -20 -43c0 -22 5.5 -39.833 16.5 -53.5s25.5 -20.5 43.5 -20.5c14.667 0 30.667 4.66699 48 14z" />
    <glyph glyph-name="b" unicode="b" 
d="M5 646l183.999 -0.000976562v-400c0 -26 5.83301 -45.667 17.5 -59s25.834 -20 42.501 -20c16 0 31.5 6.5 46.5 19.5s22.5 28.167 22.5 45.5v7c-2 18.667 -10.167 33 -24.5 43s-30.166 15 -47.499 15c-14.667 0 -28 -3.33301 -40 -10v187h36
c76.667 0 137.167 -20.167 181.5 -60.5s66.5 -96.166 66.5 -167.499c0 -86 -27.667 -152.333 -83 -199c-46.667 -39.333 -104.334 -59 -173.001 -59c-72 0 -127 24.333 -165 73c-42.667 54.667 -64 139.667 -64 255v330z" />
    <glyph glyph-name="c" unicode="c" horiz-adv-x="342" 
d="M330 2h-86c-78 0 -139.667 23.667 -185 71c-40.667 42.667 -61 95 -61 157c0 62.667 21.333 116.667 64 162c47.333 50 110.333 75 189 75h79v-166h-86c-18 0 -32.833 -7.33301 -44.5 -22s-17.5 -31 -17.5 -49c0 -17.333 5.33301 -32.5 16 -45.5s26 -19.5 46 -19.5h86
v-163z" />
    <glyph glyph-name="d" unicode="d" 
d="M304 646l179.001 -0.000976562v-371c0 -90.667 -18 -160 -54 -208c-40 -52.667 -102.333 -79 -187 -79c-66 0 -122.5 23.833 -169.5 71.5s-70.5 105.167 -70.5 172.5l3 14c0 72 20.5 127.167 61.5 165.5s95.5 57.5 163.5 57.5h25.5c8.33301 0 17.166 -0.666992 26.499 -2
v-173c-2 0.666992 -6 1.33398 -12 2.00098s-13 1 -21 1c-24 0 -42.333 -6.66699 -55 -20s-19 -31.666 -19 -54.999c0 -16.667 6 -30.334 18 -41.001s25.667 -16 41 -16c18.667 0 35 6.66699 49 20s21 31.333 21 54v407z" />
    <glyph glyph-name="e" unicode="e" horiz-adv-x="486" 
d="M474 294l-228 -123.999l-47 81l93 50c-10 10 -22.667 15 -38 15c-20 0 -40.167 -8.5 -60.5 -25.5s-30.5 -33.167 -30.5 -48.5l2 -3c6 -32.667 17.167 -58.334 33.5 -77.001s35.5 -28 57.5 -28c36.667 0 75.667 22.333 117 67l101 -98c-24.667 -36 -59 -64.5 -103 -85.5
s-88.667 -31.5 -134 -31.5c-64 0 -117.667 18.333 -161 55c-49.333 41.333 -74 99.333 -74 174l-2 12c-0 74.667 25.333 134.667 76 180c45.333 40 97.333 60 156 60c64.667 0 118 -17.333 160 -52c34 -28 61.333 -68.333 82 -121z" />
    <glyph glyph-name="f" unicode="f" horiz-adv-x="304" 
d="M2 2v465c0 54 16.667 98 50 132c30.667 31.333 68.334 47 113.001 47h129v-151h-62c-16.667 0 -28.834 -5.66699 -36.501 -17s-11.5 -22.333 -11.5 -33h110v-151h-107v-292h-185z" />
    <glyph glyph-name="g" unicode="g" 
d="M275 179l-0.00292969 -162.002c-21.333 -11.333 -44.333 -17 -69 -17c-52 0 -97.333 20 -136 60c-43.333 45.333 -65 105 -65 179c0 62.667 19 114.667 57 156c44 48 106.333 72 187 72c60.667 0 114.834 -21.833 162.501 -65.5s71.5 -95.5 71.5 -155.5v-229
c0 -72.667 -26.333 -126.667 -79 -162c-43.333 -29.333 -100.666 -44 -171.999 -44c-32 0 -64.333 2.66699 -97 8s-61.667 12.333 -87 21v148c29.333 -6.66699 58.666 -12.667 87.999 -18s53.333 -8 72 -8c30.667 0 53.667 5.33301 69 16c18 12.667 27 32.667 27 60v184
c0 22 -6.16699 38.667 -18.5 50s-26.833 17 -43.5 17c-15.333 0 -29.166 -5.16699 -41.499 -15.5s-18.5 -24.166 -18.5 -41.499c0 -19.333 4.83301 -34.5 14.5 -45.5s22.167 -16.5 37.5 -16.5c4.66699 0 10.834 0.833008 18.501 2.5s15.167 3.83398 22.5 6.50098z" />
    <glyph glyph-name="h" unicode="h" horiz-adv-x="448" 
d="M-2 2v637h184v-208c14 12 30.167 21 48.5 27s36.5 9 54.5 9c42 0 77.667 -15.333 107 -46c32 -33.333 48 -78 48 -134v-285h-186v266c0 12 -3.66699 21.333 -11 28s-15.666 10 -24.999 10c-8.66699 0 -16.834 -3.5 -24.501 -10.5s-11.5 -16.167 -11.5 -27.5v-266h-184z
" />
    <glyph glyph-name="i" unicode="i" horiz-adv-x="223" 
d="M-2 603c0 31.333 10.332 55.5 30.999 72.5s46 25.5 76 25.5c28.667 0 53.834 -8.66699 75.501 -26s32.5 -41.333 32.5 -72v-5c0 -32 -11.167 -57.5 -33.5 -76.5s-47.833 -28.5 -76.5 -28.5c-28 0 -52 9.33301 -72 28c-22 20.667 -33 48 -33 82zM4.99902 2v450h191v-450
h-191z" />
    <glyph glyph-name="j" unicode="j" horiz-adv-x="323" 
d="M91 603c0 32 10.5 56.334 31.5 73.001s46.5 25 76.5 25c28 0 52.833 -8.83301 74.5 -26.5s32.5 -41.5 32.5 -71.5v-7c0 -31.333 -10.833 -56.833 -32.5 -76.5s-46.5 -29.5 -74.5 -29.5c-29.333 0 -54 9.33301 -74 28c-22.667 21.333 -34 49.666 -34 84.999zM105 452.001
h186.999v-414c0 -72 -16.667 -126.667 -50 -164s-79 -56 -137 -56h-100v163h64c14.667 0 24.334 4 29.001 12s7 23 7 45v414z" />
    <glyph glyph-name="k" unicode="k" horiz-adv-x="448" 
d="M-2 2l-0.000976562 637h184v-323l2 -3c15.333 0 31 23.333 47 70l23 69h186l-43 -118c-15.333 -34.667 -36.666 -59 -63.999 -73c34 -13.333 57.667 -29 71 -47c19.333 -26 29 -67.667 29 -125v-87h-187v134c0 14 -4.83301 23.5 -14.5 28.5s-26.167 7.5 -49.5 7.5v-170
h-184z" />
    <glyph glyph-name="l" unicode="l" horiz-adv-x="204" 
d="M-2 2v637h191v-637h-191z" />
    <glyph glyph-name="m" unicode="m" horiz-adv-x="692" 
d="M246 2l0.000976562 258.999c0 12.667 -3.16699 22.5 -9.5 29.5s-13.5 10.5 -21.5 10.5c-8.66699 0 -16.834 -3.83301 -24.501 -11.5s-11.5 -17.167 -11.5 -28.5v-259h-184v273c0 62.667 20.667 111 62 145c35.333 29.333 79.333 44 132 44c32 0 61.667 -5.5 89 -16.5
s47 -26.167 59 -45.5c17.333 18.667 39.833 33.334 67.5 44.001s56.167 16 85.5 16c50.667 0 93 -14.333 127 -43c38.667 -32.667 58 -79 58 -139v-278h-187v266c0 10 -2.66699 18 -8 24s-11.333 9 -18 9c-8 0 -14.833 -4.16699 -20.5 -12.5s-8.5 -19.833 -8.5 -34.5v-252
h-187z" />
    <glyph glyph-name="n" unicode="n" horiz-adv-x="448" 
d="M-2 2v284.999c0 52.667 22.333 95 67 127c40.667 28.667 90 43 148 43c60 0 110.667 -14.667 152 -44c46.667 -33.333 70 -77.666 70 -132.999v-278h-193v266c0 9.33301 -2.83301 16.5 -8.5 21.5s-11.834 7.5 -18.501 7.5c-7.33301 0 -14.666 -3 -21.999 -9
s-11 -12.667 -11 -20v-266h-184z" />
    <glyph glyph-name="o" unicode="o" horiz-adv-x="486" 
d="M-2 232c0 64 22.166 119.168 66.499 165.501s98.5 69.5 162.5 69.5c72.667 0 132.334 -23.667 179.001 -71c43.333 -44 65 -96.333 65 -157c0 -75.333 -25.333 -137 -76 -185c-46.667 -44 -102.667 -66 -168 -66c-54 0 -103.667 20 -149 60
c-53.333 47.333 -80 108.666 -80 183.999zM176.999 232.001c0 -18.667 5.66699 -33.334 17 -44.001s24.666 -16 39.999 -16c16 0 29.667 5.33301 41 16s17 25.334 17 44.001c0 16.667 -5.83301 29.667 -17.5 39s-25.167 14 -40.5 14s-28.666 -4.66699 -39.999 -14
s-17 -22.333 -17 -39z" />
    <glyph glyph-name="p" unicode="p" 
d="M5 -182v414c0 71.333 22.833 129.5 68.5 174.5s99.167 67.5 160.5 67.5c78.667 0 140.667 -24.667 186 -74c42 -46 63 -105.333 63 -178c0 -57.333 -14.667 -107 -44 -149c-38.667 -55.333 -96.334 -83 -173.001 -83c-6 0 -15.667 0.666992 -29 2
s-23.666 2.33301 -30.999 3v184c10 -5.33301 18 -9 24 -11s12.333 -3 19 -3c16.667 0 31.167 6.16699 43.5 18.5s18.5 28.5 18.5 48.5c0 19.333 -7 35 -21 47s-29.333 18 -46 18c-17.333 0 -32 -5.66699 -44 -17s-18 -27.333 -18 -48v-414h-177z" />
    <glyph glyph-name="q" unicode="q" 
d="M282 179v-183.999l-50 -2c-68.667 0 -123.667 19.667 -165 59c-43.333 41.333 -65 98 -65 170l3 17c0 72 24.667 129.667 74 173c44.667 39.333 98 59 160 59c66 0 123 -22.667 171 -68c53.333 -50.667 80 -118 80 -202v-383h-186v404
c0 23.333 -6.83301 41.166 -20.5 53.499s-29.167 18.5 -46.5 18.5s-32 -5.33301 -44 -16s-18 -26 -18 -46c0 -20.667 6 -37 18 -49s26.667 -18 44 -18c7.33301 0 14.833 1.33301 22.5 4s15.167 6 22.5 10z" />
    <glyph glyph-name="r" unicode="r" horiz-adv-x="366" 
d="M-2 2l-0.000976562 450h169v-57c26.667 32 57.334 53 92.001 63c20.667 6 50 9 88 9v-158c-50.667 0 -87.667 -5.66699 -111 -17c-36 -17.333 -54 -50 -54 -98v-192h-184z" />
    <glyph glyph-name="s" unicode="s" horiz-adv-x="366" 
d="M2 2l-0.000976562 155.996h120c16 0 24 3 24 9c0 4.66699 -3.33301 10.334 -10 17.001s-16 12.334 -28 17.001c-34 11.333 -59.667 27 -77 47c-19.333 22.667 -29 52.334 -29 89.001c0 38.667 15.667 68.667 47 90c24.667 16.667 51.334 25 80.001 25h201v-143h-93
c-6.66699 0 -13.5 -1.66699 -20.5 -5s-10.5 -6.66602 -10.5 -9.99902c0 -6.66699 10.333 -15.334 31 -26.001c38 -22 62 -38 72 -48c23.333 -23.333 35 -53.666 35 -90.999c0 -41.333 -10 -72 -30 -92c-22.667 -23.333 -59.667 -35 -111 -35h-201z" />
    <glyph glyph-name="t" unicode="t" horiz-adv-x="304" 
d="M0 596h191v-144h94v-158h-94v-93c0 -15.333 3 -26.333 9 -33s18.333 -10 37 -10h48v-156h-101c-67.333 0 -116.333 19 -147 57c-24.667 30.667 -37 70.667 -37 120v417z" />
    <glyph glyph-name="u" unicode="u" horiz-adv-x="448" 
d="M-2 452l184 -0.000976562v-258c0 -24 8.66699 -36 26 -36c8 0 15.667 3.33301 23 10s11 15.334 11 26.001v258h186v-265c0 -61.333 -23 -110.333 -69 -147c-42 -33.333 -92.333 -50 -151 -50c-56.667 0 -104.667 16.333 -144 49c-44 36.667 -66 86 -66 148v265z" />
    <glyph glyph-name="v" unicode="v" horiz-adv-x="467" 
d="M2 452h177.001l53 -273l48 273h179l-100 -385c-4.66699 -20.667 -19.834 -37 -45.501 -49s-55.167 -18 -88.5 -18c-32 0 -58.667 5.66699 -80 17c-24.667 13.333 -38.667 32.333 -42 57z" />
    <glyph glyph-name="w" unicode="w" horiz-adv-x="692" 
d="M0 452l184 -0.000976562v-273c0 -8 3 -14.667 9 -20s12.667 -8 20 -8s14.333 2.66699 21 8s10 12 10 20v273h187v-258c0 -13.333 3.16699 -23.833 9.5 -31.5s13.5 -11.5 21.5 -11.5s15.167 3.66699 21.5 11s9.5 18 9.5 32v258h179v-287
c0 -55.333 -21.333 -98.666 -64 -129.999c-36.667 -26.667 -81.334 -40 -134.001 -40c-31.333 0 -59.666 5.16699 -84.999 15.5s-43.333 24.5 -54 42.5c-10.667 -20 -28.5 -35.5 -53.5 -46.5s-52.5 -16.5 -82.5 -16.5c-53.333 0 -98.333 15 -135 45
c-42.667 34.667 -64 82.667 -64 144v273z" />
    <glyph glyph-name="x" unicode="x" horiz-adv-x="405" 
d="M0 2v156h57c15.333 0 27.666 6.33301 36.999 19s14 27 14 43c0 19.333 -5.66699 36.5 -17 51.5s-27.333 22.5 -48 22.5h-43v151h55c34.667 0 63.667 -3.5 87 -10.5s45.333 -20.167 66 -39.5c16 18 34.333 30.833 55 38.5s46.334 11.5 77.001 11.5h52v-151h-50
c-18 0 -32 -6.83301 -42 -20.5s-15 -29.834 -15 -48.501c0 -18 4.66699 -33.667 14 -47s21.333 -20 36 -20h57v-156l-52 -2c-33.333 0 -58.333 3.5 -75 10.5s-38 23.5 -64 49.5c-25.333 -25.333 -47.5 -41.666 -66.5 -48.999s-46.167 -11 -81.5 -11z" />
    <glyph glyph-name="y" unicode="y" horiz-adv-x="448" 
d="M129 -5c-41.333 28.667 -71.332 55.667 -89.999 81c-24.667 34 -37 73.333 -37 118v258h185v-258c0 -11.333 3.16699 -20.5 9.5 -27.5s13.5 -10.5 21.5 -10.5c7.33301 0 14.666 3.66699 21.999 11s11 16.333 11 27v258h180v-273c0 -44 -10.167 -81 -30.5 -111
s-50.833 -54.333 -91.5 -73v-177h-180v177z" />
    <glyph glyph-name="z" unicode="z" horiz-adv-x="448" 
d="M419 2h-299.001c-39.333 0 -69.166 8.5 -89.499 25.5s-30.5 38.167 -30.5 63.5c0 12.667 3 25.667 9 39s14 25 24 35l142 136h-142v151h245c51.333 0 90 -11.333 116 -34c21.333 -18.667 32 -41.667 32 -69c0 -24.667 -7.33301 -43 -22 -55l-148 -143h163v-149z" />
    <glyph glyph-name="braceleft" unicode="{" horiz-adv-x="304" 
d="M-7 323c30.667 0 52.668 4.33301 66.001 13s20 21 20 37v223c0 27.333 12.333 52 37 74s49.667 33 75 33h103v-79c-42.667 0 -64 -16.667 -64 -50v-194c0 -36.667 -8 -61.667 -24 -75c-10.667 -8.66699 -36.334 -18.667 -77.001 -30c42 0 69.333 -7.16699 82 -21.5
s19 -41.5 19 -81.5v-177c0 -24.667 2.5 -41.5 7.5 -50.5s16.833 -13.5 35.5 -13.5h21v-84h-88c-37.333 0 -67.333 12 -90 36c-24.667 26 -37 63.333 -37 112v156c0 28.667 -5.33301 48.167 -16 58.5s-34 17.833 -70 22.5v91z" />
    <glyph glyph-name="bar" unicode="|" horiz-adv-x="141" 
d="M0 2v637h127v-637h-127z" />
    <glyph glyph-name="braceright" unicode="}" horiz-adv-x="323" 
d="M160 275c-62 0 -93.001 32.6689 -93.001 98.002v187c0 27.333 -4.16699 44.833 -12.5 52.5s-25.833 11.5 -52.5 11.5v87h65c49.333 0 86.833 -12.833 112.5 -38.5s38.5 -60.834 38.5 -105.501v-179c0 -29.333 9 -49.333 27 -60c13.333 -8 33 -12 59 -12v-84
c-23.333 0 -43.5 -4.5 -60.5 -13.5s-25.5 -22.167 -25.5 -39.5v-198c0 -42 -15 -75.667 -45 -101c-26 -22 -54 -33 -84 -33h-87v91h24c14.667 0 25.167 5 31.5 15s9.5 29 9.5 57v177c0 27.333 8.33301 47.666 25 60.999c12.667 10 35.334 19 68.001 27z" />
    <glyph glyph-name="asciitilde" unicode="~" horiz-adv-x="448" 
d="M33 129l-35.002 117c16.667 27.333 34.167 47 52.5 59s37.5 18 57.5 18c22.667 0 56.334 -10.833 101.001 -32.5s76.334 -32.5 95.001 -32.5c16 0 31.333 5.16699 46 15.5s28 26.833 40 49.5l38 -115c-18 -26 -37 -45.167 -57 -57.5s-40 -18.5 -60 -18.5
c-22 0 -48 6 -78 18c-68 27.333 -108.333 41 -121 41c-16 0 -30.5 -4.66699 -43.5 -14s-24.833 -25.333 -35.5 -48z" />
    <glyph glyph-name="nonbreakingspace" unicode="&#xa0;" horiz-adv-x="500" 
 />
    <glyph glyph-name="exclamdown" unicode="&#xa1;" horiz-adv-x="223" 
d="M0 359c0 32 10.5 56.334 31.5 73.001s46.5 25 76.5 25c28 0 52.833 -8.83301 74.5 -26.5s32.5 -41.5 32.5 -71.5v-7c0 -31.333 -10.833 -56.833 -32.5 -76.5s-46.5 -29.5 -74.5 -29.5c-29.333 0 -54 9.33301 -74 28c-22.667 21.333 -34 49.666 -34 84.999zM7 -181.999
l22 404h158l21 -404h-201z" />
    <glyph glyph-name="cent" unicode="&#xa2;" horiz-adv-x="342" 
d="M179 2c-59.333 12.667 -105.667 40.667 -139 84c-30 39.333 -45 84.666 -45 135.999c0 54.667 16 103 48 145c34.667 45.333 80 71.333 136 78v79h79v-72h77v-158h-65c-28.667 0 -51 -7.33301 -67 -22s-24 -32 -24 -52c0 -17.333 7.5 -33.166 22.5 -47.499
s33.833 -21.5 56.5 -21.5h77v-156h-77v-57h-79v64z" />
    <glyph glyph-name="sterling" unicode="&#xa3;" horiz-adv-x="548" 
d="M98 254l-86 0.000976562v134h86v79c0 56 18.833 99.833 56.5 131.5s93.834 47.5 168.501 47.5c10.667 0 22.5 -0.166992 35.5 -0.5s33.167 -2.5 60.5 -6.5v-187c-30.667 8 -55.667 12 -75 12c-18 0 -32.333 -2.83301 -43 -8.5s-16 -13.834 -16 -24.501v-43h83v-134h-83
c0 -27.333 -1.33301 -45 -4 -53c-4.66699 -14 -15.334 -26 -32.001 -36c42 4 65.333 6.33301 70 7c29.333 6 45.666 28.333 48.999 67h165c0 -84 -18.667 -146 -56 -186c-32 -34 -75.333 -51 -130 -51h-342v163h43c22.667 0 37.334 8 44.001 24c4 10 6 31.667 6 65z" />
    <glyph glyph-name="currency" unicode="&#xa4;" horiz-adv-x="486" 
d="M232 431c-31.333 0 -57 -11.667 -77 -35c-17.333 -20.667 -26 -45 -26 -73c0 -30 9.5 -55.5 28.5 -76.5s46.167 -31.5 81.5 -31.5c32 0 56.833 10.167 74.5 30.5s26.5 44.5 26.5 72.5c0 30 -9 55.667 -27 77c-20 24 -47 36 -81 36zM45 452l-50 49.999l65 65l48 -50
c34.667 22 76 33 124 33c24 0 46.667 -2.5 68 -7.5s41 -13.5 59 -25.5l50 50l65 -65l-48 -50c10.667 -13.333 19.667 -31.833 27 -55.5s11 -48.834 11 -75.501c0 -22 -3.16699 -44 -9.5 -66s-15.833 -42.333 -28.5 -61l48 -50l-65 -63l-50 48
c-35.333 -22 -75.333 -33 -120 -33c-22 0 -43.667 2.83301 -65 8.5s-41 13.834 -59 24.501l-48 -48l-65 63l51 50c-28.667 40.667 -43 87 -43 139c0 44.667 11.667 84.334 35 119.001z" />
    <glyph glyph-name="yen" unicode="&#xa5;" horiz-adv-x="529" 
d="M163 2l-0.000976562 142h-120v102h120v48h-120v108h98c-14 20.667 -31.667 35.334 -53 44.001s-48.333 13 -81 13v180h86c38 0 70.667 -8 98 -24c16 -9.33301 41 -30 75 -62c20 26 41 45.667 63 59c29.333 18 62.333 27 99 27h86v-180
c-27.333 0 -52.166 -4.33301 -74.499 -13s-40.5 -23.334 -54.5 -44.001h101v-108h-122v-48h122v-102h-122v-142h-201z" />
    <glyph glyph-name="brokenbar" unicode="&#xa6;" horiz-adv-x="141" 
d="M0 2v637h127v-637h-127z" />
    <glyph glyph-name="section" unicode="&#xa7;" 
d="M84 359c-20 12.667 -35.832 29.8291 -47.499 51.4961s-17.5 44.167 -17.5 67.5c0 20.667 3.83301 40.334 11.5 59.001s18.167 33.334 31.5 44.001c28 25.333 60.667 42.833 98 52.5s87 14.5 149 14.5l134 -2v-179c-15.333 0 -37.666 1.83301 -66.999 5.5s-47 5.5 -53 5.5
c-14 0 -24.333 -1.33301 -31 -4s-10 -7.66699 -10 -15c0 -10.667 32.167 -34.167 96.5 -70.5s99.166 -78.833 104.499 -127.5v-19c0 -33.333 -8.33301 -63.666 -25 -90.999c-14 -23.333 -32 -41.666 -54 -54.999c19.333 -12.667 33.833 -29.834 43.5 -51.501
s14.5 -44.5 14.5 -68.5c0 -17.333 -2.5 -34.666 -7.5 -51.999s-11.5 -31 -19.5 -41c-23.333 -27.333 -58.333 -47 -105 -59c-38 -10 -85 -15 -141 -15c-50 0 -106.667 3 -170 9v177c28 -4.66699 51.667 -8.16699 71 -10.5s38.666 -3.5 57.999 -3.5
c17.333 0 31.333 1.83301 42 5.5s16 8.83398 16 15.501c0 10 -18 23.333 -54 40c-48 22 -81.333 41.333 -100 58c-36 31.333 -54 69.666 -54 114.999c0 32.667 9.66699 63 29 91c14.667 21.333 33.667 39 57 53zM270.001 193.995c3.33301 2 5.00098 6.66895 5.00098 14.002
c0 5.33301 -1.5 10.666 -4.5 15.999s-7.83301 11.333 -14.5 18c-12 14 -25.667 21 -41 21l-9 -2c-6.66699 -4 -10 -9.66699 -10 -17c0 -10.667 7.16699 -22.834 21.5 -36.501s27.166 -20.5 38.499 -20.5c6 0 10.667 2.33301 14 7z" />
    <glyph glyph-name="dieresis" unicode="&#xa8;" horiz-adv-x="366" 
d="M0 603c0 22.667 7.66699 40.3359 23 53.0029s34 19 56 19c20.667 0 39 -6.33301 55 -19s24 -30.334 24 -53.001c0 -24.667 -8 -44.334 -24 -59.001s-34.333 -22 -55 -22c-21.333 0 -39.333 6.66699 -54 20c-16.667 15.333 -25 35.666 -25 60.999zM184 603.002
c0 24 7.83301 42.335 23.5 55.002s35.167 19 58.5 19c21.333 0 40.5 -6.66699 57.5 -20s25.5 -31.333 25.5 -54c0 -24.667 -8.33301 -44.334 -25 -59.001s-36 -22 -58 -22s-40.667 6.66699 -56 20c-17.333 15.333 -26 35.666 -26 60.999z" />
    <glyph glyph-name="copyright" unicode="&#xa9;" horiz-adv-x="649" 
d="M402 373c-3.33301 21.333 -10.166 36.335 -20.499 45.002s-25.166 13 -44.499 13h-7c-22.667 0 -40.334 -10.833 -53.001 -32.5s-19 -46.834 -19 -75.501c0 -30 7.16699 -56.667 21.5 -80s33.5 -35 57.5 -35c20.667 0 36 4 46 12c12.667 10 19 26 19 48h79
c0 -40 -9.33301 -71.667 -28 -95c-24 -29.333 -62.667 -44 -116 -44s-96.333 20.333 -129 61c-30 37.333 -45 81.666 -45 132.999c0 50 14 92.667 42 128c31.333 39.333 73 59 125 59c37.333 0 70.666 -11 99.999 -33c34 -26 51 -60.667 51 -104h-79zM316 560.002
c-58 0 -107.167 -22.167 -147.5 -66.5s-60.5 -98.833 -60.5 -163.5c0 -78 21 -140.167 63 -186.5s97.333 -69.5 166 -69.5c64 0 114 23 150 69c32.667 41.333 49 93.333 49 156c0 68 -18.667 127 -56 177c-42 56 -96.667 84 -164 84zM316 646.002
c88.667 0 163.334 -29.667 224.001 -89c64 -62.667 96 -143 96 -241c0 -100.667 -26.167 -180.5 -78.5 -239.5s-123.5 -88.5 -213.5 -88.5c-92.667 0 -171.667 28.333 -237 85c-71.333 62 -107 143 -107 243l2 14c0 102.667 34.333 183 103 241
c59.333 50 129.666 75 210.999 75z" />
    <glyph glyph-name="ordfeminine" unicode="&#xaa;" horiz-adv-x="323" 
d="M184 474v-108l-24 -2c-46.667 0 -84 11 -112 33c-32 25.333 -48 63 -48 113c-0 44.667 14.833 79.667 44.5 105s65.167 38 106.5 38c43.333 0 80.666 -14 111.999 -42c35.333 -32 53 -75.333 53 -130v-108h-117v137c0 10.667 -4.5 19.167 -13.5 25.5
s-18.833 9.5 -29.5 9.5s-20.167 -3.16699 -28.5 -9.5s-12.5 -14.833 -12.5 -25.5c0 -13.333 4.16699 -23.5 12.5 -30.5s18.5 -10.5 30.5 -10.5c3.33301 0 6.33301 0.333008 9 1c10.667 2.66699 16.334 4 17.001 4z" />
    <glyph glyph-name="guillemotleft" unicode="&#xab;" horiz-adv-x="467" 
d="M347 232l108 -117h-144l-108 117l108 112h144zM146 232l108 -117h-144l-108 117l108 112h144z" />
    <glyph glyph-name="logicalnot" unicode="&#xac;" horiz-adv-x="467" 
d="M323 110v165h-321v127h450v-292h-129z" />
    <glyph glyph-name="minus" unicode="&#xad;" horiz-adv-x="261" 
d="M0 172v122h251v-122h-251z" />
    <glyph glyph-name="registered" unicode="&#xae;" horiz-adv-x="692" 
d="M330 560c-62.667 0 -116.167 -22.833 -160.5 -68.5s-66.5 -99.5 -66.5 -161.5l-3 -14c0 -66 25 -123.333 75 -172c48 -46.667 102 -70 162 -70c66 0 121.333 25 166 75c42.667 47.333 64 103 64 167c0 80 -22.333 141.333 -67 184c-42 40 -98.667 60 -170 60zM330 646
c94 0 174 -26.998 240 -80.998c74.667 -61.333 112 -144.333 112 -249c0 -96.667 -35 -176.334 -105 -239.001c-66 -59.333 -146 -89 -240 -89c-92.667 0 -171.334 28.333 -236.001 85c-70.667 61.333 -106 142.333 -106 243v14c0 101.333 38 181.666 114 240.999
c64.667 50 138.334 75 221.001 75zM203 144.002v357.998h127c54.667 0 94.667 -8.66699 120 -26s38 -44.333 38 -81c0 -35.333 -7.33301 -60.166 -22 -74.499s-40.667 -23.166 -78 -26.499l86 -150h-79l-79 143h-29v-143h-84zM287 359h71.999c25.333 0 38 11 38 33
c0 10.667 -4.16699 21 -12.5 31s-19.166 15 -32.499 15h-65v-79z" />
    <glyph glyph-name="degree" unicode="&#xb0;" horiz-adv-x="204" 
d="M5 581c0 25.333 8 45.333 24 60s36 22 60 22h7c24.667 0 46.334 -7.16699 65.001 -21.5s28 -34.5 28 -60.5c0 -30.667 -9.33301 -54.667 -28 -72s-40.334 -26 -65.001 -26s-46 8.66699 -64 26s-27 41.333 -27 72zM69 581c0 -10 3 -17.667 9 -23s12.667 -8 20 -8
c8 0 14.833 2.83301 20.5 8.5s8.5 13.167 8.5 22.5c0 6.66699 -3 12 -9 16s-12.667 6 -20 6c-8 0 -14.833 -1.83301 -20.5 -5.5s-8.5 -9.16699 -8.5 -16.5z" />
    <glyph glyph-name="acute" unicode="&#xb4;" horiz-adv-x="261" 
d="M12 495l-14 50l222 108l29 -108z" />
    <glyph glyph-name="paragraph" unicode="&#xb6;" horiz-adv-x="529" 
d="M199 323c-55.333 0 -99.333 9.66797 -132 29.001c-44.667 26.667 -67 69.667 -67 129v14c0 53.333 21.667 92.666 65 117.999c38 22 90.333 33 157 33h292v-813h-114v727h-87v-727h-114v490z" />
    <glyph glyph-name="periodcentered" unicode="&#xb7;" horiz-adv-x="323" 
d="M0 323c0 50.667 16.333 90.334 49 119.001c30 26 66.333 39 109 39c44 0 80.333 -12.667 109 -38c32.667 -28.667 49 -68.667 49 -120c0 -50.667 -16.667 -91.334 -50 -122.001c-30 -27.333 -66 -41 -108 -41c-42.667 0 -79 14 -109 42c-32.667 30.667 -49 71 -49 121z
" />
    <glyph glyph-name="periodcentered" unicode="&#x2219;" horiz-adv-x="323" 
d="M0 323c0 50.667 16.333 90.334 49 119.001c30 26 66.333 39 109 39c44 0 80.333 -12.667 109 -38c32.667 -28.667 49 -68.667 49 -120c0 -50.667 -16.667 -91.334 -50 -122.001c-30 -27.333 -66 -41 -108 -41c-42.667 0 -79 14 -109 42c-32.667 30.667 -49 71 -49 121z
" />
    <glyph glyph-name="cedilla" unicode="&#xb8;" horiz-adv-x="180" 
d="M29 17l64.0029 0.00195312l-14 -36l7 2c19.333 0 36.166 -8.83301 50.499 -26.5s21.5 -37.5 21.5 -59.5c0 -22.667 -8.33301 -42.334 -25 -59.001c-20 -19.333 -47.667 -29 -83 -29h-15h-14c-6.66699 1.33301 -11.334 2 -14.001 2v72
c5.33301 -1.33301 11.333 -2.5 18 -3.5s16 -1.5 28 -1.5c8 0 15.5 1.5 22.5 4.5s10.5 7.16699 10.5 12.5c0 6.66699 -1.33301 12 -4 16c-4.66699 6.66699 -10.334 10 -17.001 10c-3.33301 0 -8 -1.33301 -14 -4c-2 -0.666992 -7 -3.33398 -15 -8.00098l-36 22z" />
    <glyph glyph-name="ordmasculine" unicode="&#xba;" horiz-adv-x="323" 
d="M0 502c0 43.333 15.666 77.834 46.999 103.501s68.333 38.5 111 38.5h5c40.667 0 76.334 -11.833 107.001 -35.5s46 -56.5 46 -98.5c0 -48 -16.667 -86.333 -50 -115c-30 -26 -66 -39 -108 -39s-78 12.333 -108 37c-33.333 27.333 -50 63.666 -50 108.999z
M121.999 502.001c0 -13.333 3.33301 -23.833 10 -31.5s14.667 -11.5 24 -11.5c8.66699 0 16.667 4 24 12s11 18.333 11 31c0 11.333 -3.5 20.166 -10.5 26.499s-15.167 9.5 -24.5 9.5c-8.66699 0 -16.5 -3.16699 -23.5 -9.5s-10.5 -15.166 -10.5 -26.499z" />
    <glyph glyph-name="guillemotright" unicode="&#xbb;" horiz-adv-x="467" 
d="M309 232l-115 112h143l115 -112l-115 -117h-143zM115 232l-113 112h142l117 -112l-117 -117h-142z" />
    <glyph glyph-name="questiondown" unicode="&#xbf;" horiz-adv-x="467" 
d="M122 366c0 32 10.501 56.333 31.501 73s46.5 25 76.5 25c28.667 0 53.667 -8.5 75 -25.5s32 -41.167 32 -72.5v-7c0 -32 -11.333 -58 -34 -78c-20 -18 -44.333 -27 -73 -27s-53.334 9.33301 -74.001 28c-22.667 20.667 -34 48.667 -34 84zM144.001 232l165 -0.000976562
v-172h-65c-16.667 0 -29.167 -3.5 -37.5 -10.5s-12.5 -14.833 -12.5 -23.5c0 -8 4 -16 12 -24s16.667 -12 26 -12c8 0 16 3 24 9c10.667 8 18.667 18.667 24 32l172 -72c-20 -50 -51.333 -87.667 -94 -113c-37.333 -22 -79.333 -33 -126 -33c-38 0 -74.5 7.33301 -109.5 22
s-60.833 33 -77.5 55c-30 38.667 -45 81 -45 127c0 42.667 12.5 80.834 37.5 114.501s60.5 54.5 106.5 62.5v38z" />
    <glyph glyph-name="Agrave" unicode="&#xc0;" 
d="M0 2v407c0 66 20.667 122 62 168c45.333 50.667 106 76 182 76c68 0 124 -19.333 168 -58c50.667 -44.667 76 -109 76 -193v-400h-201v185h-57v172h57v64c0 14 -4.16699 24.833 -12.5 32.5s-18.5 11.5 -30.5 11.5s-22.167 -3.83301 -30.5 -11.5s-12.5 -18.5 -12.5 -32.5
v-421h-201z" />
    <glyph glyph-name="Agrave" unicode="&#x410;" 
d="M0 2v407c0 66 20.667 122 62 168c45.333 50.667 106 76 182 76c68 0 124 -19.333 168 -58c50.667 -44.667 76 -109 76 -193v-400h-201v185h-57v172h57v64c0 14 -4.16699 24.833 -12.5 32.5s-18.5 11.5 -30.5 11.5s-22.167 -3.83301 -30.5 -11.5s-12.5 -18.5 -12.5 -32.5
v-421h-201z" />
    <glyph glyph-name="Aacute" unicode="&#xc1;" horiz-adv-x="529" 
d="M423 388c27.333 -15.333 48.666 -39.5 63.999 -72.5s23 -67.833 23 -104.5c0 -55.333 -14.333 -103 -43 -143c-32 -44 -73.667 -66 -125 -66h-342v429c0 65.333 20.833 117.5 62.5 156.5s99.834 58.5 174.501 58.5h234v-158h-234c-16 0 -26 -8 -30 -24s-6 -41.333 -6 -76
v-211h29c23.333 0 41 3.83301 53 11.5s18 16.5 18 26.5c0 10.667 -6.33301 21 -19 31s-27.667 15 -45 15h-7v134l24 9l35 5l53 -5z" />
    <glyph glyph-name="Aacute" unicode="&#x411;" horiz-adv-x="529" 
d="M423 388c27.333 -15.333 48.666 -39.5 63.999 -72.5s23 -67.833 23 -104.5c0 -55.333 -14.333 -103 -43 -143c-32 -44 -73.667 -66 -125 -66h-342v429c0 65.333 20.833 117.5 62.5 156.5s99.834 58.5 174.501 58.5h234v-158h-234c-16 0 -26 -8 -30 -24s-6 -41.333 -6 -76
v-211h29c23.333 0 41 3.83301 53 11.5s18 16.5 18 26.5c0 10.667 -6.33301 21 -19 31s-27.667 15 -45 15h-7v134l24 9l35 5l53 -5z" />
    <glyph glyph-name="Acircumflex" unicode="&#xc2;" horiz-adv-x="529" 
d="M0 2l-0.000976562 429.003c0 65.333 20.833 117.5 62.5 156.5s99.834 58.5 174.501 58.5h9c67.333 0 122 -22 164 -66c38 -39.333 57 -84.333 57 -135c0 -45.333 -14.667 -79 -44 -101c28 -14.667 49.5 -36.834 64.5 -66.501s22.5 -60.834 22.5 -93.501
c0 -48.667 -14.333 -90.334 -43 -125.001c-32 -38 -73.667 -57 -125 -57h-112v163c24 0 41.833 4.16699 53.5 12.5s17.5 18.5 17.5 30.5c0 12.667 -6 24.667 -18 36s-27.333 17 -46 17h-7v134c12 0 21.667 4 29 12s11 17.333 11 28c0 10 -3 19 -9 27s-14 12 -24 12
c-16 0 -26 -6.16699 -30 -18.5s-6 -34.833 -6 -67.5v-386h-201z" />
    <glyph glyph-name="Acircumflex" unicode="&#x412;" horiz-adv-x="529" 
d="M0 2l-0.000976562 429.003c0 65.333 20.833 117.5 62.5 156.5s99.834 58.5 174.501 58.5h9c67.333 0 122 -22 164 -66c38 -39.333 57 -84.333 57 -135c0 -45.333 -14.667 -79 -44 -101c28 -14.667 49.5 -36.834 64.5 -66.501s22.5 -60.834 22.5 -93.501
c0 -48.667 -14.333 -90.334 -43 -125.001c-32 -38 -73.667 -57 -125 -57h-112v163c24 0 41.833 4.16699 53.5 12.5s17.5 18.5 17.5 30.5c0 12.667 -6 24.667 -18 36s-27.333 17 -46 17h-7v134c12 0 21.667 4 29 12s11 17.333 11 28c0 10 -3 19 -9 27s-14 12 -24 12
c-16 0 -26 -6.16699 -30 -18.5s-6 -34.833 -6 -67.5v-386h-201z" />
    <glyph glyph-name="Atilde" unicode="&#xc3;" horiz-adv-x="385" 
d="M0 2l0.00195312 450c0 54.667 20.167 99.5 60.5 134.5s94.166 52.5 161.499 52.5h149v-180h-98c-30.667 0 -50.334 -5 -59.001 -15s-13 -28.667 -13 -56v-386h-201z" />
    <glyph glyph-name="Atilde" unicode="&#x413;" horiz-adv-x="385" 
d="M0 2l0.00195312 450c0 54.667 20.167 99.5 60.5 134.5s94.166 52.5 161.499 52.5h149v-180h-98c-30.667 0 -50.334 -5 -59.001 -15s-13 -28.667 -13 -56v-386h-201z" />
    <glyph glyph-name="Adieresis" unicode="&#xc4;" horiz-adv-x="629" 
d="M69 2h-68.999v197h69v210c0 65.333 21 121.333 63 168c46 50.667 106.333 76 181 76c67.333 0 122.666 -19.333 165.999 -58c50.667 -44.667 76 -109 76 -193v-213h62v-187h-318v185h57v236c0 14 -4.16699 24.833 -12.5 32.5s-18.5 11.5 -30.5 11.5
c-11.333 0 -21.333 -4 -30 -12s-13 -18.667 -13 -32v-421h-201z" />
    <glyph glyph-name="Adieresis" unicode="&#x414;" horiz-adv-x="629" 
d="M69 2h-68.999v197h69v210c0 65.333 21 121.333 63 168c46 50.667 106.333 76 181 76c67.333 0 122.666 -19.333 165.999 -58c50.667 -44.667 76 -109 76 -193v-213h62v-187h-318v185h57v236c0 14 -4.16699 24.833 -12.5 32.5s-18.5 11.5 -30.5 11.5
c-11.333 0 -21.333 -4 -30 -12s-13 -18.667 -13 -32v-421h-201z" />
    <glyph glyph-name="Aring" unicode="&#xc5;" horiz-adv-x="424" 
d="M411 2h-112.004c-95.333 0 -170.666 32 -225.999 96c-50 58 -75 129 -75 213c0 87.333 26.333 162 79 224c58.667 69.333 137.334 104 236.001 104h98v-165h-64c-31.333 0 -60.666 -7.16699 -87.999 -21.5s-42.666 -33.5 -45.999 -57.5h198v-149h-198
c4 -17.333 14.333 -33.333 31 -48c20 -17.333 43 -26 69 -26h98v-170z" />
    <glyph glyph-name="Aring" unicode="&#x415;" horiz-adv-x="424" 
d="M411 2h-112.004c-95.333 0 -170.666 32 -225.999 96c-50 58 -75 129 -75 213c0 87.333 26.333 162 79 224c58.667 69.333 137.334 104 236.001 104h98v-165h-64c-31.333 0 -60.666 -7.16699 -87.999 -21.5s-42.666 -33.5 -45.999 -57.5h198v-149h-198
c4 -17.333 14.333 -33.333 31 -48c20 -17.333 43 -26 69 -26h98v-170z" />
    <glyph glyph-name="AE" unicode="&#xc6;" horiz-adv-x="792" 
d="M488 261v-259h-201v259c-30 -4 -49.333 -9 -58 -15c-12 -8.66699 -18 -23.667 -18 -45v-199h-201v220c0 42 12.333 74.333 37 97c18 16.667 41.333 27.667 70 33c-16.667 3.33301 -31.334 18.333 -44.001 45c-9.33301 18.667 -18.666 46.667 -27.999 84l-50 158h201
l50 -158c3.33301 -17.333 8.5 -35.166 15.5 -53.499s13.833 -27.5 20.5 -27.5l5 2v237h201v-235l2 -2c7.33301 0 15.333 10 24 30c6.66699 16 11.667 33 15 51l48 156h201l-51 -156c-6.66699 -32 -15.667 -59.667 -27 -83c-13.333 -27.333 -28 -42.666 -44 -45.999
c28.667 -4.66699 52 -15.334 70 -32.001c24.667 -22.667 37 -55 37 -97v-220h-201v198c0 20.667 -4.83301 34.667 -14.5 42s-29.5 12.666 -59.5 15.999z" />
    <glyph glyph-name="AE" unicode="&#x416;" horiz-adv-x="792" 
d="M488 261v-259h-201v259c-30 -4 -49.333 -9 -58 -15c-12 -8.66699 -18 -23.667 -18 -45v-199h-201v220c0 42 12.333 74.333 37 97c18 16.667 41.333 27.667 70 33c-16.667 3.33301 -31.334 18.333 -44.001 45c-9.33301 18.667 -18.666 46.667 -27.999 84l-50 158h201
l50 -158c3.33301 -17.333 8.5 -35.166 15.5 -53.499s13.833 -27.5 20.5 -27.5l5 2v237h201v-235l2 -2c7.33301 0 15.333 10 24 30c6.66699 16 11.667 33 15 51l48 156h201l-51 -156c-6.66699 -32 -15.667 -59.667 -27 -83c-13.333 -27.333 -28 -42.666 -44 -45.999
c28.667 -4.66699 52 -15.334 70 -32.001c24.667 -22.667 37 -55 37 -97v-220h-201v198c0 20.667 -4.83301 34.667 -14.5 42s-29.5 12.666 -59.5 15.999z" />
    <glyph glyph-name="Ccedilla" unicode="&#xc7;" horiz-adv-x="448" 
d="M-2 0l0.000976562 178.999h146c18 0 32 2.83301 42 8.5s15 12.5 15 20.5c0 6.66699 -4 13.167 -12 19.5s-18.333 9.5 -31 9.5h-160v174h141c33.333 0 50 8 50 24c0 6 -3.66699 11.5 -11 16.5s-16.333 7.5 -27 7.5h-153l2 180l261 -3c29.333 0 60.666 -18 93.999 -54
c36 -39.333 54 -80.333 54 -123c0 -27.333 -7.66699 -52.666 -23 -75.999c-17.333 -26.667 -44 -50 -80 -70c41.333 -13.333 73 -33.666 95 -60.999c20 -24.667 30 -51.334 30 -80.001c0 -44 -22.333 -82.667 -67 -116c-48 -36 -108 -54 -180 -54z" />
    <glyph glyph-name="Ccedilla" unicode="&#x417;" horiz-adv-x="448" 
d="M-2 0l0.000976562 178.999h146c18 0 32 2.83301 42 8.5s15 12.5 15 20.5c0 6.66699 -4 13.167 -12 19.5s-18.333 9.5 -31 9.5h-160v174h141c33.333 0 50 8 50 24c0 6 -3.66699 11.5 -11 16.5s-16.333 7.5 -27 7.5h-153l2 180l261 -3c29.333 0 60.666 -18 93.999 -54
c36 -39.333 54 -80.333 54 -123c0 -27.333 -7.66699 -52.666 -23 -75.999c-17.333 -26.667 -44 -50 -80 -70c41.333 -13.333 73 -33.666 95 -60.999c20 -24.667 30 -51.334 30 -80.001c0 -44 -22.333 -82.667 -67 -116c-48 -36 -108 -54 -180 -54z" />
    <glyph glyph-name="Egrave" unicode="&#xc8;" horiz-adv-x="548" 
d="M533 538v-536h-198v259l-124 -180v-81h-206v639h201v-254l119 184v70h208v-101z" />
    <glyph glyph-name="Egrave" unicode="&#x418;" horiz-adv-x="548" 
d="M533 538v-536h-198v259l-124 -180v-81h-206v639h201v-254l119 184v70h208v-101z" />
    <glyph glyph-name="Eacute" unicode="&#xc9;" horiz-adv-x="548" 
d="M533 538v-536h-198v259l-124 -180v-81h-206v639h201v-254l119 184v70h208v-101zM172 684l-14 50l222 106l29 -106z" />
    <glyph glyph-name="Eacute" unicode="&#x419;" horiz-adv-x="548" 
d="M533 538v-536h-198v259l-124 -180v-81h-206v639h201v-254l119 184v70h208v-101zM172 684l-14 50l222 106l29 -106z" />
    <glyph glyph-name="Ecircumflex" unicode="&#xca;" 
d="M-2 2l-0.00195312 637.001h201v-237l2 -2c8.66699 0 17.334 10 26.001 30c6 14.667 11 31.667 15 51l47 158h201l-47 -158c-9.33301 -36.667 -19 -64.667 -29 -84c-13.333 -26.667 -28.666 -41.667 -45.999 -45c39.333 -6.66699 68 -23 86 -49
c14.667 -20.667 22 -47.667 22 -81v-220h-201v199c0 21.333 -5 35.666 -15 42.999s-30.333 13 -61 17v-259h-201z" />
    <glyph glyph-name="Ecircumflex" unicode="&#x41a;" 
d="M-2 2l-0.00195312 637.001h201v-237l2 -2c8.66699 0 17.334 10 26.001 30c6 14.667 11 31.667 15 51l47 158h201l-47 -158c-9.33301 -36.667 -19 -64.667 -29 -84c-13.333 -26.667 -28.666 -41.667 -45.999 -45c39.333 -6.66699 68 -23 86 -49
c14.667 -20.667 22 -47.667 22 -81v-220h-201v199c0 21.333 -5 35.666 -15 42.999s-30.333 13 -61 17v-259h-201z" />
    <glyph glyph-name="Edieresis" unicode="&#xcb;" horiz-adv-x="548" 
d="M0 7l120 558c3.33301 30 18 53 44 69s57.333 24 94 24c34.667 0 66.667 -7.83301 96 -23.5s47 -36.5 53 -62.5l129 -565h-208l-62 385l-67 -385h-199z" />
    <glyph glyph-name="Edieresis" unicode="&#x41b;" horiz-adv-x="548" 
d="M0 7l120 558c3.33301 30 18 53 44 69s57.333 24 94 24c34.667 0 66.667 -7.83301 96 -23.5s47 -36.5 53 -62.5l129 -565h-208l-62 385l-67 -385h-199z" />
    <glyph glyph-name="Igrave" unicode="&#xcc;" horiz-adv-x="749" 
d="M5 2l42.999 536.002c0 33.333 14 60.5 42 81.5s59.333 31.5 94 31.5c30.667 0 57.834 -8.16699 81.501 -24.5s38.834 -40.833 45.501 -73.5l50 -209l58 223c6 24 21.833 43.5 47.5 58.5s53.5 22.5 83.5 22.5c35.333 0 65.333 -9.66699 90 -29
c29.333 -22.667 44 -54.334 44 -95.001l43 -522h-194l-21 371l-79 -328c-3.33301 -16.667 -11.333 -29.5 -24 -38.5s-27 -13.5 -43 -13.5c-15.333 0 -28.833 3.66699 -40.5 11s-18.834 18.666 -21.501 33.999l-84 335l-24 -371h-191z" />
    <glyph glyph-name="Igrave" unicode="&#x41c;" horiz-adv-x="749" 
d="M5 2l42.999 536.002c0 33.333 14 60.5 42 81.5s59.333 31.5 94 31.5c30.667 0 57.834 -8.16699 81.501 -24.5s38.834 -40.833 45.501 -73.5l50 -209l58 223c6 24 21.833 43.5 47.5 58.5s53.5 22.5 83.5 22.5c35.333 0 65.333 -9.66699 90 -29
c29.333 -22.667 44 -54.334 44 -95.001l43 -522h-194l-21 371l-79 -328c-3.33301 -16.667 -11.333 -29.5 -24 -38.5s-27 -13.5 -43 -13.5c-15.333 0 -28.833 3.66699 -40.5 11s-18.834 18.666 -21.501 33.999l-84 335l-24 -371h-191z" />
    <glyph glyph-name="Iacute" unicode="&#xcd;" 
d="M-5 2v637h201v-223h93v223h201v-637h-201v252h-93v-252h-201z" />
    <glyph glyph-name="Iacute" unicode="&#x41d;" 
d="M-5 2v637h201v-223h93v223h201v-637h-201v252h-93v-252h-201z" />
    <glyph glyph-name="Icircumflex" unicode="&#xce;" horiz-adv-x="668" 
d="M5 323c0 80 27.665 150.667 82.998 212c62.667 69.333 144.334 104 245.001 104c99.333 0 178 -29.667 236 -89s87 -139.666 87 -240.999c0 -94.667 -32 -173.667 -96 -237c-61.333 -60.667 -134.666 -91 -219.999 -91c-92 0 -170.333 31.667 -235 95
c-66.667 65.333 -100 147.666 -100 246.999zM212.998 309c0 -39.333 12.333 -70.001 37 -92.001c22 -20 49.667 -30 83 -30c32.667 0 60.334 10 83.001 30c26 22.667 39 53.334 39 92.001c0 39.333 -12 69.833 -36 91.5s-52 32.5 -84 32.5
c-32.667 0 -60.334 -10.333 -83.001 -31c-26 -23.333 -39 -54.333 -39 -93z" />
    <glyph glyph-name="Icircumflex" unicode="&#x41e;" horiz-adv-x="668" 
d="M5 323c0 80 27.665 150.667 82.998 212c62.667 69.333 144.334 104 245.001 104c99.333 0 178 -29.667 236 -89s87 -139.666 87 -240.999c0 -94.667 -32 -173.667 -96 -237c-61.333 -60.667 -134.666 -91 -219.999 -91c-92 0 -170.333 31.667 -235 95
c-66.667 65.333 -100 147.666 -100 246.999zM212.998 309c0 -39.333 12.333 -70.001 37 -92.001c22 -20 49.667 -30 83 -30c32.667 0 60.334 10 83.001 30c26 22.667 39 53.334 39 92.001c0 39.333 -12 69.833 -36 91.5s-52 32.5 -84 32.5
c-32.667 0 -60.334 -10.333 -83.001 -31c-26 -23.333 -39 -54.333 -39 -93z" />
    <glyph glyph-name="Idieresis" unicode="&#xcf;" 
d="M0 2v407c0 66 20.667 122 62 168c45.333 50.667 106 76 182 76c68 0 124 -19.333 168 -58c50.667 -44.667 76 -109 76 -193v-400h-201v421c0 14 -4.16699 24.833 -12.5 32.5s-18.5 11.5 -30.5 11.5s-22.167 -3.83301 -30.5 -11.5s-12.5 -18.5 -12.5 -32.5v-421h-201z" />
    <glyph glyph-name="Idieresis" unicode="&#x41f;" 
d="M0 2v407c0 66 20.667 122 62 168c45.333 50.667 106 76 182 76c68 0 124 -19.333 168 -58c50.667 -44.667 76 -109 76 -193v-400h-201v421c0 14 -4.16699 24.833 -12.5 32.5s-18.5 11.5 -30.5 11.5s-22.167 -3.83301 -30.5 -11.5s-12.5 -18.5 -12.5 -32.5v-421h-201z" />
    <glyph glyph-name="Eth" unicode="&#xd0;" horiz-adv-x="486" 
d="M-5 2l-0.000976562 435.999c0 48.667 17 95.334 51 140.001c42 54.667 97 82 165 82h14c64.667 0 120.334 -19 167.001 -57c51.333 -42 77 -97 77 -165v-19c0 -62 -18 -113.667 -54 -155c-42 -48.667 -103 -73 -183 -73l-14 3v179l7 -2c16.667 0 30 5.33301 40 16
s15 22.667 15 36c0 12 -3.33301 22.333 -10 31s-17 13 -31 13c-20.667 0 -34.167 -5.66699 -40.5 -17s-9.5 -32 -9.5 -62v-386h-194z" />
    <glyph glyph-name="Eth" unicode="&#x420;" horiz-adv-x="486" 
d="M-5 2l-0.000976562 435.999c0 48.667 17 95.334 51 140.001c42 54.667 97 82 165 82h14c64.667 0 120.334 -19 167.001 -57c51.333 -42 77 -97 77 -165v-19c0 -62 -18 -113.667 -54 -155c-42 -48.667 -103 -73 -183 -73l-14 3v179l7 -2c16.667 0 30 5.33301 40 16
s15 22.667 15 36c0 12 -3.33301 22.333 -10 31s-17 13 -31 13c-20.667 0 -34.167 -5.66699 -40.5 -17s-9.5 -32 -9.5 -62v-386h-194z" />
    <glyph glyph-name="Ntilde" unicode="&#xd1;" horiz-adv-x="424" 
d="M416 2l-107 0.000976562c-96.667 0 -173.667 32.667 -231 98c-52 59.333 -78 131.333 -78 216c0 86 27 159.667 81 221c60 68 140.667 102 242 102h93v-187h-79c-41.333 0 -73.5 -13.333 -96.5 -40s-34.5 -58 -34.5 -94c0 -36.667 11.667 -68.334 35 -95.001
c26 -29.333 60.333 -44 103 -44h72v-177z" />
    <glyph glyph-name="Ntilde" unicode="&#x421;" horiz-adv-x="424" 
d="M416 2l-107 0.000976562c-96.667 0 -173.667 32.667 -231 98c-52 59.333 -78 131.333 -78 216c0 86 27 159.667 81 221c60 68 140.667 102 242 102h93v-187h-79c-41.333 0 -73.5 -13.333 -96.5 -40s-34.5 -58 -34.5 -94c0 -36.667 11.667 -68.334 35 -95.001
c26 -29.333 60.333 -44 103 -44h72v-177z" />
    <glyph glyph-name="Ograve" unicode="&#xd2;" horiz-adv-x="424" 
d="M105 2v457h-107v180h413v-180h-107v-457h-199z" />
    <glyph glyph-name="Ograve" unicode="&#x422;" horiz-adv-x="424" 
d="M105 2v457h-107v180h413v-180h-107v-457h-199z" />
    <glyph glyph-name="Oacute" unicode="&#xd3;" horiz-adv-x="548" 
d="M263 14c-22.667 -4.66699 -51.6699 -9.33301 -87.0029 -14s-62 -7 -80 -7c-13.333 0 -22.666 0.5 -27.999 1.5s-8 3.5 -8 7.5l2 3v162c54.667 0 93.334 4.33301 116.001 13s36 21.334 40 38.001c-21.333 2 -37.333 4.66699 -48 8c-33.333 10.667 -54 28.667 -62 54
l-110 364h203l60 -249l67 249h210l-127 -520c-5.33301 -19.333 -23.333 -40.333 -54 -63c-25.333 -18.667 -56.666 -34.334 -93.999 -47.001z" />
    <glyph glyph-name="Oacute" unicode="&#x423;" horiz-adv-x="548" 
d="M263 14c-22.667 -4.66699 -51.6699 -9.33301 -87.0029 -14s-62 -7 -80 -7c-13.333 0 -22.666 0.5 -27.999 1.5s-8 3.5 -8 7.5l2 3v162c54.667 0 93.334 4.33301 116.001 13s36 21.334 40 38.001c-21.333 2 -37.333 4.66699 -48 8c-33.333 10.667 -54 28.667 -62 54
l-110 364h203l60 -249l67 249h210l-127 -520c-5.33301 -19.333 -23.333 -40.333 -54 -63c-25.333 -18.667 -56.666 -34.334 -93.999 -47.001z" />
    <glyph glyph-name="Ocircumflex" unicode="&#xd4;" horiz-adv-x="749" 
d="M273 5l-0.000976562 468.998l-19 21l-32 -5c-12 0 -22.167 -5.16699 -30.5 -15.5s-12.5 -21.833 -12.5 -34.5c0 -14.667 5.16699 -28.334 15.5 -41.001s24.5 -19 42.5 -19l7 3v-182l-17 -2c-77.333 0 -136.333 24 -177 72c-34.667 40.667 -52 91.334 -52 152.001v20
c0 68.667 24.333 123.334 73 164.001c44.667 37.333 99 56 163 56h256c64.667 0 120.667 -18.667 168 -56c52.667 -42 79 -96.667 79 -164v-20c0 -61.333 -18 -112.666 -54 -153.999c-42 -48.667 -103 -73 -183 -73l-14 3v179l4 -2c18.667 0 33.334 6.16699 44.001 18.5
s16 26.833 16 43.5c0 13.333 -3.5 25 -10.5 35s-16.833 15 -29.5 15l-32 7l-16 -21v-469h-189z" />
    <glyph glyph-name="Ocircumflex" unicode="&#x424;" horiz-adv-x="749" 
d="M273 5l-0.000976562 468.998l-19 21l-32 -5c-12 0 -22.167 -5.16699 -30.5 -15.5s-12.5 -21.833 -12.5 -34.5c0 -14.667 5.16699 -28.334 15.5 -41.001s24.5 -19 42.5 -19l7 3v-182l-17 -2c-77.333 0 -136.333 24 -177 72c-34.667 40.667 -52 91.334 -52 152.001v20
c0 68.667 24.333 123.334 73 164.001c44.667 37.333 99 56 163 56h256c64.667 0 120.667 -18.667 168 -56c52.667 -42 79 -96.667 79 -164v-20c0 -61.333 -18 -112.666 -54 -153.999c-42 -48.667 -103 -73 -183 -73l-14 3v179l4 -2c18.667 0 33.334 6.16699 44.001 18.5
s16 26.833 16 43.5c0 13.333 -3.5 25 -10.5 35s-16.833 15 -29.5 15l-32 7l-16 -21v-469h-189z" />
    <glyph glyph-name="Otilde" unicode="&#xd5;" horiz-adv-x="529" 
d="M7 2l0.00292969 176.999l24 -4c34.667 0 65.667 11 93 33c30.667 24.667 46 56.667 46 96v12c0 45.333 -18 79.333 -54 102c-28.667 18 -65 27 -109 27v194h58c39.333 0 79.666 -11.667 120.999 -35c37.333 -21.333 64 -45.666 80 -72.999c18 35.333 48.333 63 91 83
c35.333 16.667 68.666 25 99.999 25h57v-194h-16c-44 0 -78.333 -13.667 -103 -41c-20.667 -22.667 -31 -49.667 -31 -81c0 -50 12.167 -86.5 36.5 -109.5s62.166 -34.5 113.499 -34.5v-177h-69c-42.667 0 -76 6 -100 18s-50.333 35 -79 69
c-28.667 -32 -56.667 -54.5 -84 -67.5s-59.333 -19.5 -96 -19.5h-79z" />
    <glyph glyph-name="Otilde" unicode="&#x425;" horiz-adv-x="529" 
d="M7 2l0.00292969 176.999l24 -4c34.667 0 65.667 11 93 33c30.667 24.667 46 56.667 46 96v12c0 45.333 -18 79.333 -54 102c-28.667 18 -65 27 -109 27v194h58c39.333 0 79.666 -11.667 120.999 -35c37.333 -21.333 64 -45.666 80 -72.999c18 35.333 48.333 63 91 83
c35.333 16.667 68.666 25 99.999 25h57v-194h-16c-44 0 -78.333 -13.667 -103 -41c-20.667 -22.667 -31 -49.667 -31 -81c0 -50 12.167 -86.5 36.5 -109.5s62.166 -34.5 113.499 -34.5v-177h-69c-42.667 0 -76 6 -100 18s-50.333 35 -79 69
c-28.667 -32 -56.667 -54.5 -84 -67.5s-59.333 -19.5 -96 -19.5h-79z" />
    <glyph glyph-name="Odieresis" unicode="&#xd6;" horiz-adv-x="610" 
d="M371 50c-16.667 -18.667 -38.1689 -33.333 -64.502 -44s-53.5 -16 -81.5 -16c-58.667 0 -109.667 18.333 -153 55c-48 40.667 -72 92.667 -72 156v438h201v-424c0 -15.333 3.5 -27.5 10.5 -36.5s15.5 -13.5 25.5 -13.5c8.66699 0 16.834 4.66699 24.501 14
s11.5 21.333 11.5 36v424h201v-417c0 -15.333 4.83301 -27 14.5 -35s20.834 -13 33.501 -15l38 -16l24 -24l14 -29v-139h-175v84c-6.66699 3.33301 -17 5 -31 5c-10.667 0 -17.667 -1 -21 -3z" />
    <glyph glyph-name="Odieresis" unicode="&#x426;" horiz-adv-x="610" 
d="M371 50c-16.667 -18.667 -38.1689 -33.333 -64.502 -44s-53.5 -16 -81.5 -16c-58.667 0 -109.667 18.333 -153 55c-48 40.667 -72 92.667 -72 156v438h201v-424c0 -15.333 3.5 -27.5 10.5 -36.5s15.5 -13.5 25.5 -13.5c8.66699 0 16.834 4.66699 24.501 14
s11.5 21.333 11.5 36v424h201v-417c0 -15.333 4.83301 -27 14.5 -35s20.834 -13 33.501 -15l38 -16l24 -24l14 -29v-139h-175v84c-6.66699 3.33301 -17 5 -31 5c-10.667 0 -17.667 -1 -21 -3z" />
    <glyph glyph-name="multiply" unicode="&#xd7;" horiz-adv-x="467" 
d="M127 213c-34 3.33301 -63.999 20 -89.999 50s-39 64.333 -39 103v273h201v-237c0 -22.667 8.66699 -34 26 -34c7.33301 0 14 3 20 9s9 14.333 9 25v237h198v-634h-198v213c0 -2.66699 -4.83301 -5 -14.5 -7s-20.834 -3 -33.501 -3c-20 0 -36.5 0.5 -49.5 1.5
s-22.833 2.16699 -29.5 3.5z" />
    <glyph glyph-name="multiply" unicode="&#x427;" horiz-adv-x="467" 
d="M127 213c-34 3.33301 -63.999 20 -89.999 50s-39 64.333 -39 103v273h201v-237c0 -22.667 8.66699 -34 26 -34c7.33301 0 14 3 20 9s9 14.333 9 25v237h198v-634h-198v213c0 -2.66699 -4.83301 -5 -14.5 -7s-20.834 -3 -33.501 -3c-20 0 -36.5 0.5 -49.5 1.5
s-22.833 2.16699 -29.5 3.5z" />
    <glyph glyph-name="Oslash" unicode="&#xd8;" horiz-adv-x="773" 
d="M5 639l200.998 -0.00195312v-424c0 -15.333 3.5 -27.5 10.5 -36.5s15.5 -13.5 25.5 -13.5c8.66699 0 16.834 4.66699 24.501 14s11.5 21.333 11.5 36v424h200v-417c0 -16.667 3.83301 -30 11.5 -40s16.834 -15 27.501 -15c9.33301 0 18 4.33301 26 13
s12 20.334 12 35.001v424h201v-445c0 -60.667 -24.667 -111 -74 -151c-45.333 -36.667 -97.333 -55 -156 -55c-28.667 0 -55.834 5.5 -81.501 16.5s-46.167 27.167 -61.5 48.5c-17.333 -19.333 -39.666 -34.166 -66.999 -44.499s-55.333 -15.5 -84 -15.5
c-60 0 -111.667 17.667 -155 53c-48 39.333 -72 91 -72 155v438z" />
    <glyph glyph-name="Oslash" unicode="&#x428;" horiz-adv-x="773" 
d="M5 639l200.998 -0.00195312v-424c0 -15.333 3.5 -27.5 10.5 -36.5s15.5 -13.5 25.5 -13.5c8.66699 0 16.834 4.66699 24.501 14s11.5 21.333 11.5 36v424h200v-417c0 -16.667 3.83301 -30 11.5 -40s16.834 -15 27.501 -15c9.33301 0 18 4.33301 26 13
s12 20.334 12 35.001v424h201v-445c0 -60.667 -24.667 -111 -74 -151c-45.333 -36.667 -97.333 -55 -156 -55c-28.667 0 -55.834 5.5 -81.501 16.5s-46.167 27.167 -61.5 48.5c-17.333 -19.333 -39.666 -34.166 -66.999 -44.499s-55.333 -15.5 -84 -15.5
c-60 0 -111.667 17.667 -155 53c-48 39.333 -72 91 -72 155v438z" />
    <glyph glyph-name="Ugrave" unicode="&#xd9;" horiz-adv-x="893" 
d="M553 213c0 -13.333 -4.16504 -24.335 -12.498 -33.002s-17.166 -13 -26.499 -13c-10 0 -18.833 5 -26.5 15s-11.5 23.333 -11.5 40v417h-201v-424c0 -15.333 -3.5 -27.5 -10.5 -36.5s-15.5 -13.5 -25.5 -13.5c-8.66699 0 -16.834 4.66699 -24.501 14
s-11.5 21.333 -11.5 36v424h-201v-438c0 -63.333 24 -114.666 72 -153.999c44 -36 96 -54 156 -54c30 0 58 4.83301 84 14.5s48 24.834 66 45.501c14 -18.667 32 -33 54 -43s44.667 -15 68 -15c51.333 0 101.666 16 150.999 48l21 3.5c6 1 9.33301 1.5 10 1.5
c11.333 0 17.666 -1 18.999 -3v-83h175v136l-14 31l-24 22l-36 19c-12 0 -22.667 3.66699 -32 11c-12 9.33301 -18 22.333 -18 39v414h-201v-421z" />
    <glyph glyph-name="Ugrave" unicode="&#x429;" horiz-adv-x="893" 
d="M553 213c0 -13.333 -4.16504 -24.335 -12.498 -33.002s-17.166 -13 -26.499 -13c-10 0 -18.833 5 -26.5 15s-11.5 23.333 -11.5 40v417h-201v-424c0 -15.333 -3.5 -27.5 -10.5 -36.5s-15.5 -13.5 -25.5 -13.5c-8.66699 0 -16.834 4.66699 -24.501 14
s-11.5 21.333 -11.5 36v424h-201v-438c0 -63.333 24 -114.666 72 -153.999c44 -36 96 -54 156 -54c30 0 58 4.83301 84 14.5s48 24.834 66 45.501c14 -18.667 32 -33 54 -43s44.667 -15 68 -15c51.333 0 101.666 16 150.999 48l21 3.5c6 1 9.33301 1.5 10 1.5
c11.333 0 17.666 -1 18.999 -3v-83h175v136l-14 31l-24 22l-36 19c-12 0 -22.667 3.66699 -32 11c-12 9.33301 -18 22.333 -18 39v414h-201v-421z" />
    <glyph glyph-name="Uacute" unicode="&#xda;" horiz-adv-x="486" 
d="M-5 624h194.002v-385c0 -30 3 -50.667 9 -62s19.667 -17 41 -17c14 0 24.667 4 32 12s11 17.667 11 29c0 12.667 -5.33301 24.667 -16 36s-24.334 17 -41.001 17h-7v179h14c79.333 0 140.333 -24 183 -72c36 -40.667 54 -91.667 54 -153v-17c0 -68 -25.667 -123 -77 -165
c-46.667 -38 -102.334 -57 -167.001 -57h-14c-68 0 -122.667 26.667 -164 80c-34.667 44.667 -52 92 -52 142v433z" />
    <glyph glyph-name="Uacute" unicode="&#x42a;" horiz-adv-x="486" 
d="M-5 624h194.002v-385c0 -30 3 -50.667 9 -62s19.667 -17 41 -17c14 0 24.667 4 32 12s11 17.667 11 29c0 12.667 -5.33301 24.667 -16 36s-24.334 17 -41.001 17h-7v179h14c79.333 0 140.333 -24 183 -72c36 -40.667 54 -91.667 54 -153v-17c0 -68 -25.667 -123 -77 -165
c-46.667 -38 -102.334 -57 -167.001 -57h-14c-68 0 -122.667 26.667 -164 80c-34.667 44.667 -52 92 -52 142v433z" />
    <glyph glyph-name="Ucircumflex" unicode="&#xdb;" horiz-adv-x="730" 
d="M5 639l194.001 -0.000976562v-385c0 -30 3 -50.667 9 -62s19.667 -17 41 -17c13.333 0 23.833 3.83301 31.5 11.5s11.5 17.167 11.5 28.5c0 12.667 -5.33301 24.667 -16 36s-24.667 17 -42 17h-7v179h15c79.333 0 140 -24 182 -72c36 -40.667 54 -91.667 54 -153v-16
c0 -68 -25.667 -123 -77 -165c-47.333 -38.667 -103 -58 -167 -58h-14c-68.667 0 -123.334 26.667 -164.001 80c-34 44.667 -51 92.334 -51 143.001v433zM522.001 -19.001v660h193v-660h-193z" />
    <glyph glyph-name="Ucircumflex" unicode="&#x42b;" horiz-adv-x="730" 
d="M5 639l194.001 -0.000976562v-385c0 -30 3 -50.667 9 -62s19.667 -17 41 -17c13.333 0 23.833 3.83301 31.5 11.5s11.5 17.167 11.5 28.5c0 12.667 -5.33301 24.667 -16 36s-24.667 17 -42 17h-7v179h15c79.333 0 140 -24 182 -72c36 -40.667 54 -91.667 54 -153v-16
c0 -68 -25.667 -123 -77 -165c-47.333 -38.667 -103 -58 -167 -58h-14c-68.667 0 -123.334 26.667 -164.001 80c-34 44.667 -51 92.334 -51 143.001v433zM522.001 -19.001v660h193v-660h-193z" />
    <glyph glyph-name="Udieresis" unicode="&#xdc;" horiz-adv-x="586" 
d="M105 624h192.001v-385c0 -30 3 -50.667 9 -62s19.667 -17 41 -17c12.667 0 22.667 4 30 12s11 17.667 11 29c0 12.667 -5.33301 24.667 -16 36s-23.667 17 -39 17h-8v179h15c78.667 0 139 -24 181 -72c35.333 -40.667 53 -91.667 53 -153v-17
c0 -68 -25.333 -123 -76 -165c-46 -38 -101 -57 -165 -57h-15c-68.667 0 -123.334 26.667 -164.001 80c-34 44 -51 91.333 -51 142v259h-103v174h105z" />
    <glyph glyph-name="Udieresis" unicode="&#x42c;" horiz-adv-x="586" 
d="M105 624h192.001v-385c0 -30 3 -50.667 9 -62s19.667 -17 41 -17c12.667 0 22.667 4 30 12s11 17.667 11 29c0 12.667 -5.33301 24.667 -16 36s-23.667 17 -39 17h-8v179h15c78.667 0 139 -24 181 -72c35.333 -40.667 53 -91.667 53 -153v-17
c0 -68 -25.333 -123 -76 -165c-46 -38 -101 -57 -165 -57h-15c-68.667 0 -123.334 26.667 -164.001 80c-34 44 -51 91.333 -51 142v259h-103v174h105z" />
    <glyph glyph-name="Yacute" unicode="&#xdd;" horiz-adv-x="424" 
d="M-5 2l0.00195312 170.001h101c26.667 0 49.667 8.33301 69 25c16.667 14 27 30.333 31 49h-201v149h201c-3.33301 23.333 -19 42.333 -47 57s-57.667 22 -89 22h-65v165h101c97.333 0 175.666 -34.667 234.999 -104c53.333 -62.667 80 -137.334 80 -224.001
c0 -84.667 -24.667 -155.667 -74 -213c-54.667 -64 -130.334 -96 -227.001 -96h-115z" />
    <glyph glyph-name="Yacute" unicode="&#x42d;" horiz-adv-x="424" 
d="M-5 2l0.00195312 170.001h101c26.667 0 49.667 8.33301 69 25c16.667 14 27 30.333 31 49h-201v149h201c-3.33301 23.333 -19 42.333 -47 57s-57.667 22 -89 22h-65v165h101c97.333 0 175.666 -34.667 234.999 -104c53.333 -62.667 80 -137.334 80 -224.001
c0 -84.667 -24.667 -155.667 -74 -213c-54.667 -64 -130.334 -96 -227.001 -96h-115z" />
    <glyph glyph-name="Thorn" unicode="&#xde;" horiz-adv-x="749" 
d="M249 254h-58v-259h-193v653h193v-229h58c0 67.333 20.667 122.333 62 165c44.667 46 105.334 69 182.001 69c65.333 0 121.166 -20.5 167.499 -61.5s69.5 -94.5 69.5 -160.5v-209c0 -75.333 -16 -130 -48 -164c-40.667 -43.333 -111.667 -65 -213 -65
c-63.333 0 -114 22.333 -152 67c-26.667 32 -46 74 -58 126zM529 215v216c0 11.333 -4.16699 20.166 -12.5 26.499s-17.833 9.5 -28.5 9.5c-10 0 -18.833 -3.16699 -26.5 -9.5s-11.5 -15.166 -11.5 -26.499v-216c0 -14.667 3.83301 -26.667 11.5 -36s16.5 -14 26.5 -14
c10.667 0 20.167 4.5 28.5 13.5s12.5 21.167 12.5 36.5z" />
    <glyph glyph-name="Thorn" unicode="&#x42e;" horiz-adv-x="749" 
d="M249 254h-58v-259h-193v653h193v-229h58c0 67.333 20.667 122.333 62 165c44.667 46 105.334 69 182.001 69c65.333 0 121.166 -20.5 167.499 -61.5s69.5 -94.5 69.5 -160.5v-209c0 -75.333 -16 -130 -48 -164c-40.667 -43.333 -111.667 -65 -213 -65
c-63.333 0 -114 22.333 -152 67c-26.667 32 -46 74 -58 126zM529 215v216c0 11.333 -4.16699 20.166 -12.5 26.499s-17.833 9.5 -28.5 9.5c-10 0 -18.833 -3.16699 -26.5 -9.5s-11.5 -15.166 -11.5 -26.499v-216c0 -14.667 3.83301 -26.667 11.5 -36s16.5 -14 26.5 -14
c10.667 0 20.167 4.5 28.5 13.5s12.5 21.167 12.5 36.5z" />
    <glyph glyph-name="germandbls" unicode="&#xdf;" horiz-adv-x="486" 
d="M474 2l-194.001 -0.000976562v386c0 31.333 -2.66699 53.5 -8 66.5s-16.333 19.5 -33 19.5c-14.667 0 -27.5 -5.83301 -38.5 -17.5s-16.5 -24.167 -16.5 -37.5c0 -11.333 4 -21 12 -29s20.667 -12 38 -12l20 2v-148c-23.333 -6.66699 -37.333 -12 -42 -16
c-10.667 -10 -16 -29.333 -16 -58v-156h-201v199c0 32.667 6.5 59.334 19.5 80.001s30.5 34.667 52.5 42c-17.333 10 -31.666 26.333 -42.999 49s-17 47 -17 73c0 54 18.667 100.667 56 140c43.333 45.333 102 68 176 68c72.667 0 128 -15.667 166 -47
c46 -38 69 -99 69 -183v-421z" />
    <glyph glyph-name="germandbls" unicode="&#x42f;" horiz-adv-x="486" 
d="M474 2l-194.001 -0.000976562v386c0 31.333 -2.66699 53.5 -8 66.5s-16.333 19.5 -33 19.5c-14.667 0 -27.5 -5.83301 -38.5 -17.5s-16.5 -24.167 -16.5 -37.5c0 -11.333 4 -21 12 -29s20.667 -12 38 -12l20 2v-148c-23.333 -6.66699 -37.333 -12 -42 -16
c-10.667 -10 -16 -29.333 -16 -58v-156h-201v199c0 32.667 6.5 59.334 19.5 80.001s30.5 34.667 52.5 42c-17.333 10 -31.666 26.333 -42.999 49s-17 47 -17 73c0 54 18.667 100.667 56 140c43.333 45.333 102 68 176 68c72.667 0 128 -15.667 166 -47
c46 -38 69 -99 69 -183v-421z" />
    <glyph glyph-name="agrave" unicode="&#xe0;" horiz-adv-x="529" 
d="M292 179l0.000976562 -177.001l-60 -4c-68 0 -123.667 21.333 -167 64s-65 99.334 -65 170.001c0 75.333 24.333 134 73 176c45.333 39.333 104.666 59 177.999 59c80 0 144 -27.667 192 -83c42.667 -49.333 64 -108 64 -176v-206h-186v230
c0 21.333 -6.83301 37.5 -20.5 48.5s-30.167 16.5 -49.5 16.5c-18 0 -33.667 -5 -47 -15s-20 -24.333 -20 -43c0 -22 5.5 -39.833 16.5 -53.5s25.5 -20.5 43.5 -20.5c14.667 0 30.667 4.66699 48 14z" />
    <glyph glyph-name="agrave" unicode="&#x430;" horiz-adv-x="529" 
d="M292 179l0.000976562 -177.001l-60 -4c-68 0 -123.667 21.333 -167 64s-65 99.334 -65 170.001c0 75.333 24.333 134 73 176c45.333 39.333 104.666 59 177.999 59c80 0 144 -27.667 192 -83c42.667 -49.333 64 -108 64 -176v-206h-186v230
c0 21.333 -6.83301 37.5 -20.5 48.5s-30.167 16.5 -49.5 16.5c-18 0 -33.667 -5 -47 -15s-20 -24.333 -20 -43c0 -22 5.5 -39.833 16.5 -53.5s25.5 -20.5 43.5 -20.5c14.667 0 30.667 4.66699 48 14z" />
    <glyph glyph-name="aacute" unicode="&#xe1;" 
d="M206 275l0.00195312 176.999c21.333 3.33301 40.333 5 57 5c68.667 0 125 -21 169 -63s66 -98.333 66 -169c0 -76 -24.333 -135.333 -73 -178c-44.667 -39.333 -103.334 -59 -176.001 -59c-80 0 -144.333 27.667 -193 83c-44 50 -66 108.333 -66 175v206
c0 54 18.333 99.333 55 136c34 34 73.333 51 118 51h234v-151h-167c-18 0 -31.333 -3.66699 -40 -11s-13 -15.666 -13 -24.999v-227c0 -22 6.66699 -39 20 -51s29 -18 47 -18s34 5.66699 48 17s21 26.333 21 45c0 20 -5.5 36.833 -16.5 50.5s-25.167 20.5 -42.5 20.5
c-6.66699 0 -14.334 -1.16699 -23.001 -3.5s-17 -5.83301 -25 -10.5z" />
    <glyph glyph-name="aacute" unicode="&#x431;" 
d="M206 275l0.00195312 176.999c21.333 3.33301 40.333 5 57 5c68.667 0 125 -21 169 -63s66 -98.333 66 -169c0 -76 -24.333 -135.333 -73 -178c-44.667 -39.333 -103.334 -59 -176.001 -59c-80 0 -144.333 27.667 -193 83c-44 50 -66 108.333 -66 175v206
c0 54 18.333 99.333 55 136c34 34 73.333 51 118 51h234v-151h-167c-18 0 -31.333 -3.66699 -40 -11s-13 -15.666 -13 -24.999v-227c0 -22 6.66699 -39 20 -51s29 -18 47 -18s34 5.66699 48 17s21 26.333 21 45c0 20 -5.5 36.833 -16.5 50.5s-25.167 20.5 -42.5 20.5
c-6.66699 0 -14.334 -1.16699 -23.001 -3.5s-17 -5.83301 -25 -10.5z" />
    <glyph glyph-name="acircumflex" unicode="&#xe2;" horiz-adv-x="529" 
d="M199 639c50.667 0 94 -17.666 130 -52.999s54 -80 54 -134v-12c0 -25.333 -8.33301 -46 -25 -62c-14 -13.333 -33 -23 -57 -29l-90 -21v103l26 19l2 9c0 7.33301 -4.66699 16.666 -14 27.999c-2.66699 3.33301 -7.33398 8.33301 -14.001 15
c-10.667 0 -18.167 -2.66699 -22.5 -8s-6.5 -12 -6.5 -20l2 -22v-227c0 -22 8.33301 -41 25 -57s34.667 -24 54 -24c16 0 29.667 5.66699 41 17s17 27 17 47v10l-24 2c-12.667 0 -25.167 -1.5 -37.5 -4.5s-27.833 -9.5 -46.5 -19.5l2 103c0 4.66699 14.667 11 44 19
s58.666 12 87.999 12c38 0 70 -7 96 -21c32.667 -17.333 53.334 -45.333 62.001 -84c2 -7.33301 3.66699 -17.166 5 -29.499s2 -22.5 2 -30.5c0 -64.667 -34 -110.667 -102 -138c-48 -19.333 -112 -29 -192 -29c-79.333 0 -137.666 26 -174.999 78
c-30 42 -45 98.667 -45 170v206c0 53.333 22.667 98.666 68 135.999c40.667 34 85 51 133 51z" />
    <glyph glyph-name="acircumflex" unicode="&#x432;" horiz-adv-x="529" 
d="M199 639c50.667 0 94 -17.666 130 -52.999s54 -80 54 -134v-12c0 -25.333 -8.33301 -46 -25 -62c-14 -13.333 -33 -23 -57 -29l-90 -21v103l26 19l2 9c0 7.33301 -4.66699 16.666 -14 27.999c-2.66699 3.33301 -7.33398 8.33301 -14.001 15
c-10.667 0 -18.167 -2.66699 -22.5 -8s-6.5 -12 -6.5 -20l2 -22v-227c0 -22 8.33301 -41 25 -57s34.667 -24 54 -24c16 0 29.667 5.66699 41 17s17 27 17 47v10l-24 2c-12.667 0 -25.167 -1.5 -37.5 -4.5s-27.833 -9.5 -46.5 -19.5l2 103c0 4.66699 14.667 11 44 19
s58.666 12 87.999 12c38 0 70 -7 96 -21c32.667 -17.333 53.334 -45.333 62.001 -84c2 -7.33301 3.66699 -17.166 5 -29.499s2 -22.5 2 -30.5c0 -64.667 -34 -110.667 -102 -138c-48 -19.333 -112 -29 -192 -29c-79.333 0 -137.666 26 -174.999 78
c-30 42 -45 98.667 -45 170v206c0 53.333 22.667 98.666 68 135.999c40.667 34 85 51 133 51z" />
    <glyph glyph-name="atilde" unicode="&#xe3;" horiz-adv-x="467" 
d="M261 144c18.667 0 35.8311 4.00293 51.498 12.0029s26.167 18.333 31.5 31l108 -77l5 -7c0 -14.667 -25.333 -34.667 -76 -60c-58 -28.667 -113.333 -43 -166 -43l-31 2c-50 6.66699 -85.667 21.667 -107 45c-15.333 17.333 -26.666 44.666 -33.999 81.999l-2 17
c0 25.333 12.333 49.666 37 72.999c17.333 16 41.666 32.333 72.999 49c17.333 9.33301 26 17.333 26 24c0 3.33301 -2.66699 6.16602 -8 8.49902s-12.333 3.5 -21 3.5c-12.667 0 -24.167 -2.5 -34.5 -7.5s-15.5 -12.167 -15.5 -21.5l-105 81c26 31.333 53.667 53 83 65
c48.667 20.667 109.334 31 182.001 31c22.667 0 47.667 -9.66699 75 -29c34.667 -24 52 -52.667 52 -86v-7c0 -34 -9.16699 -61.5 -27.5 -82.5s-44.166 -36.5 -77.499 -46.5c-12.667 -6 -23 -13 -31 -21s-12 -15.333 -12 -22c0 -9.33301 8 -14 24 -14z" />
    <glyph glyph-name="atilde" unicode="&#x433;" horiz-adv-x="467" 
d="M261 144c18.667 0 35.8311 4.00293 51.498 12.0029s26.167 18.333 31.5 31l108 -77l5 -7c0 -14.667 -25.333 -34.667 -76 -60c-58 -28.667 -113.333 -43 -166 -43l-31 2c-50 6.66699 -85.667 21.667 -107 45c-15.333 17.333 -26.666 44.666 -33.999 81.999l-2 17
c0 25.333 12.333 49.666 37 72.999c17.333 16 41.666 32.333 72.999 49c17.333 9.33301 26 17.333 26 24c0 3.33301 -2.66699 6.16602 -8 8.49902s-12.333 3.5 -21 3.5c-12.667 0 -24.167 -2.5 -34.5 -7.5s-15.5 -12.167 -15.5 -21.5l-105 81c26 31.333 53.667 53 83 65
c48.667 20.667 109.334 31 182.001 31c22.667 0 47.667 -9.66699 75 -29c34.667 -24 52 -52.667 52 -86v-7c0 -34 -9.16699 -61.5 -27.5 -82.5s-44.166 -36.5 -77.499 -46.5c-12.667 -6 -23 -13 -31 -21s-12 -15.333 -12 -22c0 -9.33301 8 -14 24 -14z" />
    <glyph glyph-name="adieresis" unicode="&#xe4;" 
d="M285 275c-8.66699 4.66699 -17.001 8.16504 -25.001 10.498s-16.667 3.5 -26 3.5c-17.333 0 -31.5 -6.5 -42.5 -19.5s-16.5 -30.167 -16.5 -51.5c0 -18.667 7 -33.667 21 -45s30 -17 48 -17c18.667 0 34.834 6 48.501 18s20.5 29 20.5 51v227
c0 8.66699 -3.66699 16.334 -11 23.001c-10 8.66699 -23.667 13 -41 13h-168v151h235c44 0 82.667 -17 116 -51c36 -36.667 54 -82 54 -136v-206c0 -67.333 -21.333 -125.666 -64 -174.999c-48 -55.333 -112 -83 -192 -83c-72 0 -131 19.667 -177 59
c-50 42.667 -75 102 -75 178c0 70.667 22 127 66 169s100.333 63 169 63c18.667 0 38.667 -1.66699 60 -5v-177z" />
    <glyph glyph-name="adieresis" unicode="&#x434;" 
d="M285 275c-8.66699 4.66699 -17.001 8.16504 -25.001 10.498s-16.667 3.5 -26 3.5c-17.333 0 -31.5 -6.5 -42.5 -19.5s-16.5 -30.167 -16.5 -51.5c0 -18.667 7 -33.667 21 -45s30 -17 48 -17c18.667 0 34.834 6 48.501 18s20.5 29 20.5 51v227
c0 8.66699 -3.66699 16.334 -11 23.001c-10 8.66699 -23.667 13 -41 13h-168v151h235c44 0 82.667 -17 116 -51c36 -36.667 54 -82 54 -136v-206c0 -67.333 -21.333 -125.666 -64 -174.999c-48 -55.333 -112 -83 -192 -83c-72 0 -131 19.667 -177 59
c-50 42.667 -75 102 -75 178c0 70.667 22 127 66 169s100.333 63 169 63c18.667 0 38.667 -1.66699 60 -5v-177z" />
    <glyph glyph-name="aring" unicode="&#xe5;" horiz-adv-x="486" 
d="M474 294l-228 -123.999l-47 81l93 50c-10 10 -22.667 15 -38 15c-20 0 -40.167 -8.5 -60.5 -25.5s-30.5 -33.167 -30.5 -48.5l2 -3c6 -32.667 17.167 -58.334 33.5 -77.001s35.5 -28 57.5 -28c36.667 0 75.667 22.333 117 67l101 -98c-24.667 -36 -59 -64.5 -103 -85.5
s-88.667 -31.5 -134 -31.5c-64 0 -117.667 18.333 -161 55c-49.333 41.333 -74 99.333 -74 174l-2 12c-0 74.667 25.333 134.667 76 180c45.333 40 97.333 60 156 60c64.667 0 118 -17.333 160 -52c34 -28 61.333 -68.333 82 -121z" />
    <glyph glyph-name="aring" unicode="&#x435;" horiz-adv-x="486" 
d="M474 294l-228 -123.999l-47 81l93 50c-10 10 -22.667 15 -38 15c-20 0 -40.167 -8.5 -60.5 -25.5s-30.5 -33.167 -30.5 -48.5l2 -3c6 -32.667 17.167 -58.334 33.5 -77.001s35.5 -28 57.5 -28c36.667 0 75.667 22.333 117 67l101 -98c-24.667 -36 -59 -64.5 -103 -85.5
s-88.667 -31.5 -134 -31.5c-64 0 -117.667 18.333 -161 55c-49.333 41.333 -74 99.333 -74 174l-2 12c-0 74.667 25.333 134.667 76 180c45.333 40 97.333 60 156 60c64.667 0 118 -17.333 160 -52c34 -28 61.333 -68.333 82 -121z" />
    <glyph glyph-name="ae" unicode="&#xe6;" horiz-adv-x="711" 
d="M443 172v-170h-185v170c-23.333 0 -40.333 -2.5 -51 -7.5s-16 -14.5 -16 -28.5v-134h-186v87c0 58 9.66699 99.667 29 125c13.333 18 38 33.667 74 47c-30.667 16 -55.667 48.667 -75 98l-35 93h186l29 -90c12.667 -32.667 26.334 -49 41.001 -49l4 3v136h185v-134l2 -2
c15.333 0 30.666 22.667 45.999 68l21 68h187l-43 -118c-15.333 -34.667 -37 -59 -65 -73c34 -13.333 57.667 -29 71 -47c19.333 -26 29 -67.667 29 -125v-87h-186v134c0 24 -20.667 36 -62 36z" />
    <glyph glyph-name="ae" unicode="&#x436;" horiz-adv-x="711" 
d="M443 172v-170h-185v170c-23.333 0 -40.333 -2.5 -51 -7.5s-16 -14.5 -16 -28.5v-134h-186v87c0 58 9.66699 99.667 29 125c13.333 18 38 33.667 74 47c-30.667 16 -55.667 48.667 -75 98l-35 93h186l29 -90c12.667 -32.667 26.334 -49 41.001 -49l4 3v136h185v-134l2 -2
c15.333 0 30.666 22.667 45.999 68l21 68h187l-43 -118c-15.333 -34.667 -37 -59 -65 -73c34 -13.333 57.667 -29 71 -47c19.333 -26 29 -67.667 29 -125v-87h-186v134c0 24 -20.667 36 -62 36z" />
    <glyph glyph-name="ccedilla" unicode="&#xe7;" horiz-adv-x="366" 
d="M292 232c16 -10.667 28.667 -23.999 38 -39.999s14 -37 14 -63c0 -41.333 -10 -72 -30 -92c-22.667 -23.333 -59.667 -35 -111 -35h-201v156h106c8 0 12 6.33301 12 19c0 14.667 -5 22 -15 22h-95v76l93 -2c8 0 12 5.33301 12 16c0 13.333 -4 20 -12 20h-93v143h201
c36 0 65.667 -13 89 -39s35 -55.333 35 -88c0 -18 -3.5 -34.833 -10.5 -50.5s-17.833 -29.834 -32.5 -42.501z" />
    <glyph glyph-name="ccedilla" unicode="&#x437;" horiz-adv-x="366" 
d="M292 232c16 -10.667 28.667 -23.999 38 -39.999s14 -37 14 -63c0 -41.333 -10 -72 -30 -92c-22.667 -23.333 -59.667 -35 -111 -35h-201v156h106c8 0 12 6.33301 12 19c0 14.667 -5 22 -15 22h-95v76l93 -2c8 0 12 5.33301 12 16c0 13.333 -4 20 -12 20h-93v143h201
c36 0 65.667 -13 89 -39s35 -55.333 35 -88c0 -18 -3.5 -34.833 -10.5 -50.5s-17.833 -29.834 -32.5 -42.501z" />
    <glyph glyph-name="egrave" unicode="&#xe8;" horiz-adv-x="448" 
d="M-2 452l184 0.00195312v-258c0 -24 8.66699 -36 26 -36c6.66699 0 12.834 2.16699 18.501 6.5s9.16699 10.166 10.5 17.499c3.33301 3.33301 5 7.33301 5 12v258h186v-452h-182v38c-16.667 -9.33301 -30.334 -16.333 -41.001 -21c-34 -14.667 -63.333 -22 -88 -22
c-34.667 0 -62 12.667 -82 38c-24.667 31.333 -37 82.666 -37 153.999v265z" />
    <glyph glyph-name="egrave" unicode="&#x438;" horiz-adv-x="448" 
d="M-2 452l184 0.00195312v-258c0 -24 8.66699 -36 26 -36c6.66699 0 12.834 2.16699 18.501 6.5s9.16699 10.166 10.5 17.499c3.33301 3.33301 5 7.33301 5 12v258h186v-452h-182v38c-16.667 -9.33301 -30.334 -16.333 -41.001 -21c-34 -14.667 -63.333 -22 -88 -22
c-34.667 0 -62 12.667 -82 38c-24.667 31.333 -37 82.666 -37 153.999v265z" />
    <glyph glyph-name="eacute" unicode="&#xe9;" horiz-adv-x="448" 
d="M-2 452l184 0.00195312v-258c0 -24 8.66699 -36 26 -36c6.66699 0 12.834 2.16699 18.501 6.5s9.16699 10.166 10.5 17.499c3.33301 3.33301 5 7.33301 5 12v258h186v-452h-182v38c-16.667 -9.33301 -30.334 -16.333 -41.001 -21c-34 -14.667 -63.333 -22 -88 -22
c-34.667 0 -62 12.667 -82 38c-24.667 31.333 -37 82.666 -37 153.999v265zM141 510.002l-14 50l222 107l29 -107z" />
    <glyph glyph-name="eacute" unicode="&#x439;" horiz-adv-x="448" 
d="M-2 452l184 0.00195312v-258c0 -24 8.66699 -36 26 -36c6.66699 0 12.834 2.16699 18.501 6.5s9.16699 10.166 10.5 17.499c3.33301 3.33301 5 7.33301 5 12v258h186v-452h-182v38c-16.667 -9.33301 -30.334 -16.333 -41.001 -21c-34 -14.667 -63.333 -22 -88 -22
c-34.667 0 -62 12.667 -82 38c-24.667 31.333 -37 82.666 -37 153.999v265zM141 510.002l-14 50l222 107l29 -107z" />
    <glyph glyph-name="ecircumflex" unicode="&#xea;" horiz-adv-x="448" 
d="M-2 2l-0.000976562 450h184v-136l2 -3c15.333 0 31 23.333 47 70l23 69h186l-43 -118c-15.333 -34.667 -36.666 -59 -63.999 -73c34 -13.333 57.667 -29 71 -47c19.333 -26 29 -67.667 29 -125v-87h-187v134c0 14 -4.83301 23.5 -14.5 28.5s-26.167 7.5 -49.5 7.5v-170
h-184z" />
    <glyph glyph-name="ecircumflex" unicode="&#x43a;" horiz-adv-x="448" 
d="M-2 2l-0.000976562 450h184v-136l2 -3c15.333 0 31 23.333 47 70l23 69h186l-43 -118c-15.333 -34.667 -36.666 -59 -63.999 -73c34 -13.333 57.667 -29 71 -47c19.333 -26 29 -67.667 29 -125v-87h-187v134c0 14 -4.83301 23.5 -14.5 28.5s-26.167 7.5 -49.5 7.5v-170
h-184z" />
    <glyph glyph-name="edieresis" unicode="&#xeb;" horiz-adv-x="467" 
d="M2 0l101 378c3.33301 24.667 16.5 43.167 39.5 55.5s50.5 18.5 82.5 18.5c32.667 0 62 -6 88 -18s41.333 -28.333 46 -49l100 -385h-179l-48 273l-53 -273h-177z" />
    <glyph glyph-name="edieresis" unicode="&#x43b;" horiz-adv-x="467" 
d="M2 0l101 378c3.33301 24.667 16.5 43.167 39.5 55.5s50.5 18.5 82.5 18.5c32.667 0 62 -6 88 -18s41.333 -28.333 46 -49l100 -385h-179l-48 273l-53 -273h-177z" />
    <glyph glyph-name="igrave" unicode="&#xec;" horiz-adv-x="749" 
d="M275 110l-48 165.002l-52 -270h-177l100 378c3.33301 20.667 14 36.167 32 46.5s39.333 15.5 64 15.5c30.667 0 60.667 -7.83301 90 -23.5s47 -34.834 53 -57.501l31 -137l27 129c4 27.333 19 48.166 45 62.499s55.667 21.5 89 21.5c26.667 0 50 -4.33301 70 -13
s31.667 -21.667 35 -39l100 -386h-179l-50 273l-36 -186c-6.66699 -31.333 -19.667 -55.333 -39 -72c-16.667 -14.667 -35.667 -22 -57 -22c-15.333 0 -30 3.5 -44 10.5s-25.667 16.167 -35 27.5c-4 12 -6.66699 21.333 -8 28c-6 22.667 -9.66699 39 -11 49z" />
    <glyph glyph-name="igrave" unicode="&#x43c;" horiz-adv-x="749" 
d="M275 110l-48 165.002l-52 -270h-177l100 378c3.33301 20.667 14 36.167 32 46.5s39.333 15.5 64 15.5c30.667 0 60.667 -7.83301 90 -23.5s47 -34.834 53 -57.501l31 -137l27 129c4 27.333 19 48.166 45 62.499s55.667 21.5 89 21.5c26.667 0 50 -4.33301 70 -13
s31.667 -21.667 35 -39l100 -386h-179l-50 273l-36 -186c-6.66699 -31.333 -19.667 -55.333 -39 -72c-16.667 -14.667 -35.667 -22 -57 -22c-15.333 0 -30 3.5 -44 10.5s-25.667 16.167 -35 27.5c-4 12 -6.66699 21.333 -8 28c-6 22.667 -9.66699 39 -11 49z" />
    <glyph glyph-name="iacute" unicode="&#xed;" horiz-adv-x="448" 
d="M-2 287v160h184v-167h60v167h193v-445h-193v182h-60v-182h-184v285z" />
    <glyph glyph-name="iacute" unicode="&#x43d;" horiz-adv-x="448" 
d="M-2 287v160h184v-167h60v167h193v-445h-193v182h-60v-182h-184v285z" />
    <glyph glyph-name="icircumflex" unicode="&#xee;" horiz-adv-x="486" 
d="M-2 232c0 64 22.166 119.168 66.499 165.501s98.5 69.5 162.5 69.5c72.667 0 132.334 -23.667 179.001 -71c43.333 -44 65 -96.333 65 -157c0 -75.333 -25.333 -137 -76 -185c-46.667 -44 -102.667 -66 -168 -66c-54 0 -103.667 20 -149 60
c-53.333 47.333 -80 108.666 -80 183.999zM176.999 232.001c0 -18.667 5.66699 -33.334 17 -44.001s24.666 -16 39.999 -16c16 0 29.667 5.33301 41 16s17 25.334 17 44.001c0 16.667 -5.83301 29.667 -17.5 39s-25.167 14 -40.5 14s-28.666 -4.66699 -39.999 -14
s-17 -22.333 -17 -39z" />
    <glyph glyph-name="icircumflex" unicode="&#x43e;" horiz-adv-x="486" 
d="M-2 232c0 64 22.166 119.168 66.499 165.501s98.5 69.5 162.5 69.5c72.667 0 132.334 -23.667 179.001 -71c43.333 -44 65 -96.333 65 -157c0 -75.333 -25.333 -137 -76 -185c-46.667 -44 -102.667 -66 -168 -66c-54 0 -103.667 20 -149 60
c-53.333 47.333 -80 108.666 -80 183.999zM176.999 232.001c0 -18.667 5.66699 -33.334 17 -44.001s24.666 -16 39.999 -16c16 0 29.667 5.33301 41 16s17 25.334 17 44.001c0 16.667 -5.83301 29.667 -17.5 39s-25.167 14 -40.5 14s-28.666 -4.66699 -39.999 -14
s-17 -22.333 -17 -39z" />
    <glyph glyph-name="idieresis" unicode="&#xef;" horiz-adv-x="448" 
d="M-2 2v284.999c0 52.667 22.333 95 67 127c40.667 28.667 90 43 148 43c60 0 110.667 -14.667 152 -44c46.667 -33.333 70 -77.666 70 -132.999v-278h-193v266c0 9.33301 -2.83301 16.5 -8.5 21.5s-11.834 7.5 -18.501 7.5c-7.33301 0 -14.666 -3 -21.999 -9
s-11 -12.667 -11 -20v-266h-184z" />
    <glyph glyph-name="idieresis" unicode="&#x43f;" horiz-adv-x="448" 
d="M-2 2v284.999c0 52.667 22.333 95 67 127c40.667 28.667 90 43 148 43c60 0 110.667 -14.667 152 -44c46.667 -33.333 70 -77.666 70 -132.999v-278h-193v266c0 9.33301 -2.83301 16.5 -8.5 21.5s-11.834 7.5 -18.501 7.5c-7.33301 0 -14.666 -3 -21.999 -9
s-11 -12.667 -11 -20v-266h-184z" />
    <glyph glyph-name="eth" unicode="&#xf0;" 
d="M5 -182v414c0 71.333 22.833 129.5 68.5 174.5s99.167 67.5 160.5 67.5c78.667 0 140.667 -24.667 186 -74c42 -46 63 -105.333 63 -178c0 -57.333 -14.667 -107 -44 -149c-38.667 -55.333 -96.334 -83 -173.001 -83c-6 0 -15.667 0.666992 -29 2
s-23.666 2.33301 -30.999 3v184c10 -5.33301 18 -9 24 -11s12.333 -3 19 -3c16.667 0 31.167 6.16699 43.5 18.5s18.5 28.5 18.5 48.5c0 19.333 -7 35 -21 47s-29.333 18 -46 18c-17.333 0 -32 -5.66699 -44 -17s-18 -27.333 -18 -48v-414h-177z" />
    <glyph glyph-name="eth" unicode="&#x440;" 
d="M5 -182v414c0 71.333 22.833 129.5 68.5 174.5s99.167 67.5 160.5 67.5c78.667 0 140.667 -24.667 186 -74c42 -46 63 -105.333 63 -178c0 -57.333 -14.667 -107 -44 -149c-38.667 -55.333 -96.334 -83 -173.001 -83c-6 0 -15.667 0.666992 -29 2
s-23.666 2.33301 -30.999 3v184c10 -5.33301 18 -9 24 -11s12.333 -3 19 -3c16.667 0 31.167 6.16699 43.5 18.5s18.5 28.5 18.5 48.5c0 19.333 -7 35 -21 47s-29.333 18 -46 18c-17.333 0 -32 -5.66699 -44 -17s-18 -27.333 -18 -48v-414h-177z" />
    <glyph glyph-name="ntilde" unicode="&#xf1;" horiz-adv-x="342" 
d="M330 2h-86c-78 0 -139.667 23.667 -185 71c-40.667 42.667 -61 95 -61 157c0 62.667 21.333 116.667 64 162c47.333 50 110.333 75 189 75h79v-166h-86c-18 0 -32.833 -7.33301 -44.5 -22s-17.5 -31 -17.5 -49c0 -17.333 5.33301 -32.5 16 -45.5s26 -19.5 46 -19.5h86
v-163z" />
    <glyph glyph-name="ntilde" unicode="&#x441;" horiz-adv-x="342" 
d="M330 2h-86c-78 0 -139.667 23.667 -185 71c-40.667 42.667 -61 95 -61 157c0 62.667 21.333 116.667 64 162c47.333 50 110.333 75 189 75h79v-166h-86c-18 0 -32.833 -7.33301 -44.5 -22s-17.5 -31 -17.5 -49c0 -17.333 5.33301 -32.5 16 -45.5s26 -19.5 46 -19.5h86
v-163z" />
    <glyph glyph-name="ograve" unicode="&#xf2;" horiz-adv-x="692" 
d="M246 2l0.000976562 258.999c0 12.667 -3.16699 22.5 -9.5 29.5s-13.5 10.5 -21.5 10.5c-8.66699 0 -16.834 -3.83301 -24.501 -11.5s-11.5 -17.167 -11.5 -28.5v-259h-184v273c0 62.667 20.667 111 62 145c35.333 29.333 79.333 44 132 44c32 0 61.667 -5.5 89 -16.5
s47 -26.167 59 -45.5c17.333 18.667 39.833 33.334 67.5 44.001s56.167 16 85.5 16c50.667 0 93 -14.333 127 -43c38.667 -32.667 58 -79 58 -139v-278h-187v266c0 10 -2.66699 18 -8 24s-11.333 9 -18 9c-8 0 -14.833 -4.16699 -20.5 -12.5s-8.5 -19.833 -8.5 -34.5v-252
h-187z" />
    <glyph glyph-name="ograve" unicode="&#x442;" horiz-adv-x="692" 
d="M246 2l0.000976562 258.999c0 12.667 -3.16699 22.5 -9.5 29.5s-13.5 10.5 -21.5 10.5c-8.66699 0 -16.834 -3.83301 -24.501 -11.5s-11.5 -17.167 -11.5 -28.5v-259h-184v273c0 62.667 20.667 111 62 145c35.333 29.333 79.333 44 132 44c32 0 61.667 -5.5 89 -16.5
s47 -26.167 59 -45.5c17.333 18.667 39.833 33.334 67.5 44.001s56.167 16 85.5 16c50.667 0 93 -14.333 127 -43c38.667 -32.667 58 -79 58 -139v-278h-187v266c0 10 -2.66699 18 -8 24s-11.333 9 -18 9c-8 0 -14.833 -4.16699 -20.5 -12.5s-8.5 -19.833 -8.5 -34.5v-252
h-187z" />
    <glyph glyph-name="oacute" unicode="&#xf3;" 
d="M275 179l-0.000976562 -162.001c-21.333 -11.333 -45.333 -17 -72 -17c-51.333 0 -96 19.667 -134 59c-42.667 44.667 -64 104 -64 178v210h177v-215c0 -20 4.66699 -35.333 14 -46s22 -16 38 -16c4.66699 0 10.834 0.833008 18.501 2.5s15.167 3.83398 22.5 6.50098z
M482.999 245.999v-229c0 -72.667 -26.333 -126.667 -79 -162c-43.333 -29.333 -100.666 -44 -171.999 -44c-32 0 -64.333 2.66699 -97 8s-61.667 12.333 -87 21v148c29.333 -6.66699 58.666 -12.667 87.999 -18s53.333 -8 72 -8c30.667 0 53.667 5.33301 69 16
c18 12.667 27 32.667 27 60v409h179v-201z" />
    <glyph glyph-name="oacute" unicode="&#x443;" 
d="M275 179l-0.000976562 -162.001c-21.333 -11.333 -45.333 -17 -72 -17c-51.333 0 -96 19.667 -134 59c-42.667 44.667 -64 104 -64 178v210h177v-215c0 -20 4.66699 -35.333 14 -46s22 -16 38 -16c4.66699 0 10.834 0.833008 18.501 2.5s15.167 3.83398 22.5 6.50098z
M482.999 245.999v-229c0 -72.667 -26.333 -126.667 -79 -162c-43.333 -29.333 -100.666 -44 -171.999 -44c-32 0 -64.333 2.66699 -97 8s-61.667 12.333 -87 21v148c29.333 -6.66699 58.666 -12.667 87.999 -18s53.333 -8 72 -8c30.667 0 53.667 5.33301 69 16
c18 12.667 27 32.667 27 60v409h179v-201z" />
    <glyph glyph-name="ocircumflex" unicode="&#xf4;" horiz-adv-x="792" 
d="M392 421c22 15.333 44.8291 28 68.4961 38s46.5 15 68.5 15c79.333 0 141.666 -24.667 186.999 -74c42.667 -46.667 64 -106 64 -178c0 -57.333 -15 -107 -45 -149c-39.333 -55.333 -97.666 -83 -174.999 -83c-6 0 -15.667 0.666992 -29 2s-23.666 2.33301 -30.999 3v184
c11.333 -6 19.5 -9.83301 24.5 -11.5s11.167 -2.5 18.5 -2.5c17.333 0 32.5 6.16699 45.5 18.5s19.5 28.5 19.5 48.5c0 19.333 -7 35 -21 47s-29.333 18 -46 18c-16 0 -30 -5.66699 -42 -17s-18 -27.333 -18 -48v-414h-177v414c0 20 -6.5 35.833 -19.5 47.5
s-28.167 17.5 -45.5 17.5c-16.667 0 -31.5 -5.83301 -44.5 -17.5s-19.5 -27.5 -19.5 -47.5s5.5 -36.167 16.5 -48.5s25.167 -18.5 42.5 -18.5c6.66699 0 14.334 1.33301 23.001 4s16.334 6 23.001 10v-184c-9.33301 -1.33301 -20.166 -2.5 -32.499 -3.5
s-21.5 -1.5 -27.5 -1.5c-76 0 -133.667 27.667 -173 83c-30 42 -45 91.667 -45 149c0 71.333 21.333 130.333 64 177c46 50 108.667 75 188 75c22.667 0 46.5 -5 71.5 -15s47.167 -22.667 66.5 -38z" />
    <glyph glyph-name="ocircumflex" unicode="&#x444;" horiz-adv-x="792" 
d="M392 421c22 15.333 44.8291 28 68.4961 38s46.5 15 68.5 15c79.333 0 141.666 -24.667 186.999 -74c42.667 -46.667 64 -106 64 -178c0 -57.333 -15 -107 -45 -149c-39.333 -55.333 -97.666 -83 -174.999 -83c-6 0 -15.667 0.666992 -29 2s-23.666 2.33301 -30.999 3v184
c11.333 -6 19.5 -9.83301 24.5 -11.5s11.167 -2.5 18.5 -2.5c17.333 0 32.5 6.16699 45.5 18.5s19.5 28.5 19.5 48.5c0 19.333 -7 35 -21 47s-29.333 18 -46 18c-16 0 -30 -5.66699 -42 -17s-18 -27.333 -18 -48v-414h-177v414c0 20 -6.5 35.833 -19.5 47.5
s-28.167 17.5 -45.5 17.5c-16.667 0 -31.5 -5.83301 -44.5 -17.5s-19.5 -27.5 -19.5 -47.5s5.5 -36.167 16.5 -48.5s25.167 -18.5 42.5 -18.5c6.66699 0 14.334 1.33301 23.001 4s16.334 6 23.001 10v-184c-9.33301 -1.33301 -20.166 -2.5 -32.499 -3.5
s-21.5 -1.5 -27.5 -1.5c-76 0 -133.667 27.667 -173 83c-30 42 -45 91.667 -45 149c0 71.333 21.333 130.333 64 177c46 50 108.667 75 188 75c22.667 0 46.5 -5 71.5 -15s47.167 -22.667 66.5 -38z" />
    <glyph glyph-name="otilde" unicode="&#xf5;" horiz-adv-x="405" 
d="M0 2v156h57c15.333 0 27.666 6.33301 36.999 19s14 27 14 43c0 19.333 -5.66699 36.5 -17 51.5s-27.333 22.5 -48 22.5h-43v151h55c34.667 0 63.667 -3.5 87 -10.5s45.333 -20.167 66 -39.5c16 18 34.333 30.833 55 38.5s46.334 11.5 77.001 11.5h52v-151h-50
c-18 0 -32 -6.83301 -42 -20.5s-15 -29.834 -15 -48.501c0 -18 4.66699 -33.667 14 -47s21.333 -20 36 -20h57v-156l-52 -2c-33.333 0 -58.333 3.5 -75 10.5s-38 23.5 -64 49.5c-25.333 -25.333 -47.5 -41.666 -66.5 -48.999s-46.167 -11 -81.5 -11z" />
    <glyph glyph-name="otilde" unicode="&#x445;" horiz-adv-x="405" 
d="M0 2v156h57c15.333 0 27.666 6.33301 36.999 19s14 27 14 43c0 19.333 -5.66699 36.5 -17 51.5s-27.333 22.5 -48 22.5h-43v151h55c34.667 0 63.667 -3.5 87 -10.5s45.333 -20.167 66 -39.5c16 18 34.333 30.833 55 38.5s46.334 11.5 77.001 11.5h52v-151h-50
c-18 0 -32 -6.83301 -42 -20.5s-15 -29.834 -15 -48.501c0 -18 4.66699 -33.667 14 -47s21.333 -20 36 -20h57v-156l-52 -2c-33.333 0 -58.333 3.5 -75 10.5s-38 23.5 -64 49.5c-25.333 -25.333 -47.5 -41.666 -66.5 -48.999s-46.167 -11 -81.5 -11z" />
    <glyph glyph-name="odieresis" unicode="&#xf6;" 
d="M-10 452l184.999 0.000976562v-258c0 -24 8.66699 -36 26 -36c6.66699 0 12.834 2.16699 18.501 6.5s9.16699 10.166 10.5 17.499c2.66699 2.66699 4 6.66699 4 12v258h187v-354l55 -24l17 -36v-74h-168l-12 38l-31 24l-36 -14c-12 -4 -22 -7 -30 -9
c-26 -6.66699 -49.333 -10 -70 -10c-43.333 0 -78 12.333 -104 37c-34.667 32.667 -52 85 -52 157v265z" />
    <glyph glyph-name="odieresis" unicode="&#x446;" 
d="M-10 452l184.999 0.000976562v-258c0 -24 8.66699 -36 26 -36c6.66699 0 12.834 2.16699 18.501 6.5s9.16699 10.166 10.5 17.499c2.66699 2.66699 4 6.66699 4 12v258h187v-354l55 -24l17 -36v-74h-168l-12 38l-31 24l-36 -14c-12 -4 -22 -7 -30 -9
c-26 -6.66699 -49.333 -10 -70 -10c-43.333 0 -78 12.333 -104 37c-34.667 32.667 -52 85 -52 157v265z" />
    <glyph glyph-name="divide" unicode="&#xf7;" 
d="M483 246v-248h-179v449h179v-201zM275 254l-0.000976562 -163c-21.333 -11.333 -45.333 -17 -72 -17c-51.333 0 -96.333 19.667 -135 59c-44 44.667 -66 104 -66 178v136h177v-138c0 -20.667 5 -36.667 15 -48s23.333 -17 40 -17c5.33301 0 11.833 1 19.5 3
s14.834 4.33301 21.501 7z" />
    <glyph glyph-name="divide" unicode="&#x447;" 
d="M483 246v-248h-179v449h179v-201zM275 254l-0.000976562 -163c-21.333 -11.333 -45.333 -17 -72 -17c-51.333 0 -96.333 19.667 -135 59c-44 44.667 -66 104 -66 178v136h177v-138c0 -20.667 5 -36.667 15 -48s23.333 -17 40 -17c5.33301 0 11.833 1 19.5 3
s14.834 4.33301 21.501 7z" />
    <glyph glyph-name="oslash" unicode="&#xf8;" horiz-adv-x="692" 
d="M0 452h183.999v-273c0 -8 3 -14.667 9 -20s12.667 -8 20 -8s14.333 2.66699 21 8s10 12 10 20v273h187v-258c0 -13.333 2.5 -23.5 7.5 -30.5s11.833 -10.5 20.5 -10.5c8 0 15.667 3.66699 23 11s11 17.333 11 30v258h179v-287c0 -56 -21.667 -99.333 -65 -130
c-37.333 -26.667 -82.666 -40 -135.999 -40h-12c-27.333 0 -52.5 5.33301 -75.5 16s-39.167 24.667 -48.5 42c-10.667 -20 -28.5 -35.5 -53.5 -46.5s-52.5 -16.5 -82.5 -16.5c-53.333 0 -98.333 15 -135 45c-42.667 34.667 -64 82.667 -64 144v273z" />
    <glyph glyph-name="oslash" unicode="&#x448;" horiz-adv-x="692" 
d="M0 452h183.999v-273c0 -8 3 -14.667 9 -20s12.667 -8 20 -8s14.333 2.66699 21 8s10 12 10 20v273h187v-258c0 -13.333 2.5 -23.5 7.5 -30.5s11.833 -10.5 20.5 -10.5c8 0 15.667 3.66699 23 11s11 17.333 11 30v258h179v-287c0 -56 -21.667 -99.333 -65 -130
c-37.333 -26.667 -82.666 -40 -135.999 -40h-12c-27.333 0 -52.5 5.33301 -75.5 16s-39.167 24.667 -48.5 42c-10.667 -20 -28.5 -35.5 -53.5 -46.5s-52.5 -16.5 -82.5 -16.5c-53.333 0 -98.333 15 -135 45c-42.667 34.667 -64 82.667 -64 144v273z" />
    <glyph glyph-name="ugrave" unicode="&#xf9;" horiz-adv-x="749" 
d="M483 452h182h-182zM483 194c0 -13.333 -3.16602 -23.832 -9.49902 -31.499s-13.5 -11.5 -21.5 -11.5s-14.833 3.5 -20.5 10.5s-8.5 17.833 -8.5 32.5v258h-186v-273c0 -8 -3.33301 -14.667 -10 -20s-13.667 -8 -21 -8c-6 0 -11.333 1.33301 -16 4
c-8.66699 5.33301 -13 13.333 -13 24v273h-184v-273c0 -60.667 21.333 -108.334 64 -143.001c37.333 -30.667 82 -46 134 -46c30 0 57.667 5.5 83 16.5s43.333 26.5 54 46.5c9.33301 -14.667 26.166 -27.167 50.499 -37.5s48.833 -15.5 73.5 -15.5c16 0 29.667 1.66699 41 5
l38 21l29 -24l14 -38h168v74l-17 36l-55 24v354h-187v-258z" />
    <glyph glyph-name="ugrave" unicode="&#x449;" horiz-adv-x="749" 
d="M483 452h182h-182zM483 194c0 -13.333 -3.16602 -23.832 -9.49902 -31.499s-13.5 -11.5 -21.5 -11.5s-14.833 3.5 -20.5 10.5s-8.5 17.833 -8.5 32.5v258h-186v-273c0 -8 -3.33301 -14.667 -10 -20s-13.667 -8 -21 -8c-6 0 -11.333 1.33301 -16 4
c-8.66699 5.33301 -13 13.333 -13 24v273h-184v-273c0 -60.667 21.333 -108.334 64 -143.001c37.333 -30.667 82 -46 134 -46c30 0 57.667 5.5 83 16.5s43.333 26.5 54 46.5c9.33301 -14.667 26.166 -27.167 50.499 -37.5s48.833 -15.5 73.5 -15.5c16 0 29.667 1.66699 41 5
l38 21l29 -24l14 -38h168v74l-17 36l-55 24v354h-187v-258z" />
    <glyph glyph-name="uacute" unicode="&#xfa;" horiz-adv-x="529" 
d="M-2 452l185.999 -0.000976562v-227c0 -22 8.33301 -41 25 -57s34.667 -24 54 -24c16 0 29.667 5.66699 41 17s17 27 17 47v10l-24 2c-12.667 0 -25.167 -1.5 -37.5 -4.5s-27.833 -9.5 -46.5 -19.5l2 103c0 4.66699 14.667 11 44 19s58.666 12 87.999 12
c38 0 70 -7 96 -21c32.667 -17.333 53.334 -45.333 62.001 -84c2 -7.33301 3.66699 -17.166 5 -29.499s2 -22.5 2 -30.5c0 -64.667 -34 -110.667 -102 -138c-48 -19.333 -112 -29 -192 -29c-79.333 0 -137.666 26 -174.999 78c-30 42 -45 98.667 -45 170v206z" />
    <glyph glyph-name="uacute" unicode="&#x44a;" horiz-adv-x="529" 
d="M-2 452l185.999 -0.000976562v-227c0 -22 8.33301 -41 25 -57s34.667 -24 54 -24c16 0 29.667 5.66699 41 17s17 27 17 47v10l-24 2c-12.667 0 -25.167 -1.5 -37.5 -4.5s-27.833 -9.5 -46.5 -19.5l2 103c0 4.66699 14.667 11 44 19s58.666 12 87.999 12
c38 0 70 -7 96 -21c32.667 -17.333 53.334 -45.333 62.001 -84c2 -7.33301 3.66699 -17.166 5 -29.499s2 -22.5 2 -30.5c0 -64.667 -34 -110.667 -102 -138c-48 -19.333 -112 -29 -192 -29c-79.333 0 -137.666 26 -174.999 78c-30 42 -45 98.667 -45 170v206z" />
    <glyph glyph-name="ucircumflex" unicode="&#xfb;" horiz-adv-x="749" 
d="M545 450h187v-455h-187v455zM0 452l187 -0.00195312v-227c0 -22 8.33301 -41 25 -57s34.667 -24 54 -24c15.333 0 28.666 5.66699 39.999 17s17 27 17 47v10l-24 2c-12.667 0 -25.167 -1.5 -37.5 -4.5s-27.833 -9.5 -46.5 -19.5l3 103c0 4.66699 14.333 11 43 19
s58 12 88 12c38 0 70 -7 96 -21c32.667 -17.333 53.334 -45.333 62.001 -84c2 -7.33301 3.66699 -17.166 5 -29.499s2 -22.5 2 -30.5c0 -64.667 -34 -110.667 -102 -138c-48 -19.333 -112 -29 -192 -29c-78.667 0 -136.667 26 -174 78
c-30.667 42.667 -46 99.334 -46 170.001v206z" />
    <glyph glyph-name="ucircumflex" unicode="&#x44b;" horiz-adv-x="749" 
d="M545 450h187v-455h-187v455zM0 452l187 -0.00195312v-227c0 -22 8.33301 -41 25 -57s34.667 -24 54 -24c15.333 0 28.666 5.66699 39.999 17s17 27 17 47v10l-24 2c-12.667 0 -25.167 -1.5 -37.5 -4.5s-27.833 -9.5 -46.5 -19.5l3 103c0 4.66699 14.333 11 43 19
s58 12 88 12c38 0 70 -7 96 -21c32.667 -17.333 53.334 -45.333 62.001 -84c2 -7.33301 3.66699 -17.166 5 -29.499s2 -22.5 2 -30.5c0 -64.667 -34 -110.667 -102 -138c-48 -19.333 -112 -29 -192 -29c-78.667 0 -136.667 26 -174 78
c-30.667 42.667 -46 99.334 -46 170.001v206z" />
    <glyph glyph-name="udieresis" unicode="&#xfc;" horiz-adv-x="610" 
d="M79 452l187 -0.000976562v-227c0 -22 8.33301 -41 25 -57s34.334 -24 53.001 -24c16 0 29.667 5.66699 41 17s17 27 17 47v10l-24 2c-12.667 0 -25.167 -1.5 -37.5 -4.5s-27.833 -9.5 -46.5 -19.5l3 103c0 4.66699 14.333 11 43 19s58 12 88 12c38 0 70.333 -7 97 -21
c33.333 -18 54.666 -46 63.999 -84c4.66699 -22 7 -41.333 7 -58c0 -64.667 -34 -111 -102 -139c-48.667 -20 -113.667 -30 -195 -30c-78.667 0 -136.667 26 -174 78c-30.667 42.667 -46 99.334 -46 170.001v22h-77v184h77z" />
    <glyph glyph-name="udieresis" unicode="&#x44c;" horiz-adv-x="610" 
d="M79 452l187 -0.000976562v-227c0 -22 8.33301 -41 25 -57s34.334 -24 53.001 -24c16 0 29.667 5.66699 41 17s17 27 17 47v10l-24 2c-12.667 0 -25.167 -1.5 -37.5 -4.5s-27.833 -9.5 -46.5 -19.5l3 103c0 4.66699 14.333 11 43 19s58 12 88 12c38 0 70.333 -7 97 -21
c33.333 -18 54.666 -46 63.999 -84c4.66699 -22 7 -41.333 7 -58c0 -64.667 -34 -111 -102 -139c-48.667 -20 -113.667 -30 -195 -30c-78.667 0 -136.667 26 -174 78c-30.667 42.667 -46 99.334 -46 170.001v22h-77v184h77z" />
    <glyph glyph-name="yacute" unicode="&#xfd;" horiz-adv-x="342" 
d="M-5 2v146h96c25.333 0 42 14.333 50 43h-146v94h149c-4 16 -10.333 26.667 -19 32s-21.667 8 -39 8h-91v142h79c80 0 143.333 -24.667 190 -74c42.667 -44.667 64 -99 64 -163c0 -61.333 -20.333 -113.333 -61 -156c-46 -48 -108 -72 -186 -72h-86z" />
    <glyph glyph-name="yacute" unicode="&#x44d;" horiz-adv-x="342" 
d="M-5 2v146h96c25.333 0 42 14.333 50 43h-146v94h149c-4 16 -10.333 26.667 -19 32s-21.667 8 -39 8h-91v142h79c80 0 143.333 -24.667 190 -74c42.667 -44.667 64 -99 64 -163c0 -61.333 -20.333 -113.333 -61 -156c-46 -48 -108 -72 -186 -72h-86z" />
    <glyph glyph-name="thorn" unicode="&#xfe;" horiz-adv-x="730" 
d="M244 285c12 53.333 38.333 96.998 79 130.998s88.667 51 144 51c71.333 0 130.333 -23.667 177 -71c44.667 -45.333 67 -97.666 67 -156.999c0 -75.333 -25.333 -137 -76 -185c-46.667 -44 -102.667 -66 -168 -66c-44 0 -86 13.333 -126 40
c-46 30.667 -76.667 72.334 -92 125.001h-65v-165h-179v471h179v-174h60zM416 231.998c0 -19.333 5.83301 -34.168 17.5 -44.501s25.167 -15.5 40.5 -15.5s28.666 5.33301 39.999 16s17 25.334 17 44.001c0 17.333 -5.66699 30.5 -17 39.5s-24.666 13.5 -39.999 13.5
c-16 0 -29.667 -4.66699 -41 -14s-17 -22.333 -17 -39z" />
    <glyph glyph-name="thorn" unicode="&#x44e;" horiz-adv-x="730" 
d="M244 285c12 53.333 38.333 96.998 79 130.998s88.667 51 144 51c71.333 0 130.333 -23.667 177 -71c44.667 -45.333 67 -97.666 67 -156.999c0 -75.333 -25.333 -137 -76 -185c-46.667 -44 -102.667 -66 -168 -66c-44 0 -86 13.333 -126 40
c-46 30.667 -76.667 72.334 -92 125.001h-65v-165h-179v471h179v-174h60zM416 231.998c0 -19.333 5.83301 -34.168 17.5 -44.501s25.167 -15.5 40.5 -15.5s28.666 5.33301 39.999 16s17 25.334 17 44.001c0 17.333 -5.66699 30.5 -17 39.5s-24.666 13.5 -39.999 13.5
c-16 0 -29.667 -4.66699 -41 -14s-17 -22.333 -17 -39z" />
    <glyph glyph-name="ydieresis" unicode="&#xff;" horiz-adv-x="529" 
d="M512 -5l-184 -0.00292969v237c0 22 -8.66699 40.333 -26 55s-36 22 -56 22c-15.333 0 -29 -5.66699 -41 -17s-18 -26.666 -18 -45.999l2 -7c6 -7.33301 11 -12.666 15 -15.999c14 -11.333 29 -17 45 -17c6 0 12.5 1.33301 19.5 4s14.833 6 23.5 10v-86l-70 -139h-189
l77 127c-27.333 6 -51 17.667 -71 35c-22.667 19.333 -34 44.333 -34 75l-3 2c0 66.667 19 117.334 57 152.001c44.667 40.667 123 61 235 61h19c74.667 0 126.5 -17 155.5 -51s43.5 -96.667 43.5 -188v-213z" />
    <glyph glyph-name="ydieresis" unicode="&#x44f;" horiz-adv-x="529" 
d="M512 -5l-184 -0.00292969v237c0 22 -8.66699 40.333 -26 55s-36 22 -56 22c-15.333 0 -29 -5.66699 -41 -17s-18 -26.666 -18 -45.999l2 -7c6 -7.33301 11 -12.666 15 -15.999c14 -11.333 29 -17 45 -17c6 0 12.5 1.33301 19.5 4s14.833 6 23.5 10v-86l-70 -139h-189
l77 127c-27.333 6 -51 17.667 -71 35c-22.667 19.333 -34 44.333 -34 75l-3 2c0 66.667 19 117.334 57 152.001c44.667 40.667 123 61 235 61h19c74.667 0 126.5 -17 155.5 -51s43.5 -96.667 43.5 -188v-213z" />
    <glyph glyph-name="Ydieresis" unicode="&#x178;" horiz-adv-x="529" 
d="M512 -5l-184 -0.00292969v237c0 22 -8.66699 40.333 -26 55s-36 22 -56 22c-15.333 0 -29 -5.66699 -41 -17s-18 -26.666 -18 -45.999l2 -7c6 -7.33301 11 -12.666 15 -15.999c14 -11.333 29 -17 45 -17c6 0 12.5 1.33301 19.5 4s14.833 6 23.5 10v-86l-70 -139h-189
l77 127c-27.333 6 -51 17.667 -71 35c-22.667 19.333 -34 44.333 -34 75l-3 2c0 66.667 19 117.334 57 152.001c44.667 40.667 123 61 235 61h19c74.667 0 126.5 -17 155.5 -51s43.5 -96.667 43.5 -188v-213z" />
    <glyph glyph-name="circumflex" unicode="&#x2c6;" horiz-adv-x="467" 
d="M225 524l-101 -215h-122l165 330h122l158 -330h-122z" />
    <glyph glyph-name="tilde" unicode="&#x2dc;" horiz-adv-x="448" 
d="M33 129l-35.002 117c16.667 27.333 34.167 47 52.5 59s37.5 18 57.5 18c22.667 0 56.334 -10.833 101.001 -32.5s76.334 -32.5 95.001 -32.5c16 0 31.333 5.16699 46 15.5s28 26.833 40 49.5l38 -115c-18 -26 -37 -45.167 -57 -57.5s-40 -18.5 -60 -18.5
c-22 0 -48 6 -78 18c-68 27.333 -108.333 41 -121 41c-16 0 -30.5 -4.66699 -43.5 -14s-24.833 -25.333 -35.5 -48z" />
    <glyph glyph-name="quoteleft" unicode="&#x2018;" horiz-adv-x="830" 
d="M598 103c0 30.667 10.5 54.333 31.5 71s46.5 25 76.5 25c28.667 0 53.667 -8.5 75 -25.5s32 -40.5 32 -70.5v-7c0 -31.333 -11.333 -57 -34 -77c-20 -17.333 -44.333 -26 -73 -26c-29.333 0 -54 9 -74 27c-22.667 20 -34 47.667 -34 83zM297 102.999
c0 30 10.501 53.5 31.501 70.5s46.167 25.5 75.5 25.5s54.666 -8.5 75.999 -25.5s32 -40.5 32 -70.5v-7c0 -32 -11.333 -57.667 -34 -77c-20 -17.333 -44.667 -26 -74 -26c-28.667 0 -53 9 -73 27c-22.667 20 -34 47.667 -34 83zM-1.99902 102.999
c0 30 10.501 53.5 31.501 70.5s46.167 25.5 75.5 25.5s54.666 -8.5 75.999 -25.5s32 -40.5 32 -70.5v-7c0 -32 -11.333 -57.667 -34 -77c-20 -17.333 -44.667 -26 -74 -26c-28.667 0 -53 9 -73 27c-22.667 20 -34 47.667 -34 83z" />
    <glyph glyph-name="quoteright" unicode="&#x2019;" horiz-adv-x="1055" 
d="M5 495c0 44.667 14 83.332 42 115.999c32 37.333 74.667 56 128 56c45.333 0 84.666 -17.667 117.999 -53c31.333 -33.333 47 -70.666 47 -111.999c0 -58.667 -16.667 -103.667 -50 -135c-30.667 -29.333 -71.667 -44 -123 -44c-43.333 0 -80.666 16 -111.999 48
c-33.333 34 -50 75.333 -50 124zM132 494.998c0 -13.333 4.16699 -23.833 12.5 -31.5s18.5 -11.5 30.5 -11.5c10.667 0 20.5 3.83301 29.5 11.5s13.5 18.167 13.5 31.5c0 14 -4.33301 24.667 -13 32s-18.667 11 -30 11c-12.667 0 -23 -3.5 -31 -10.5s-12 -17.833 -12 -32.5z
M706 157.998c0 44.667 14.001 83.332 42.001 115.999c32 37.333 74.667 56 128 56c46 0 85 -17 117 -51s48 -72 48 -114c0 -57.333 -16.167 -101.166 -48.5 -131.499s-73.833 -45.5 -124.5 -45.5c-42.667 0 -80.334 16.333 -113.001 49s-49 73 -49 121zM833.001 157.996
c0 -13.333 4.16699 -23.833 12.5 -31.5s18.5 -11.5 30.5 -11.5s22.5 3.66699 31.5 11s13.5 18 13.5 32c0 13.333 -4.5 23.833 -13.5 31.5s-19.5 11.5 -31.5 11.5c-12.667 0 -23 -3.5 -31 -10.5s-12 -17.833 -12 -32.5zM347.001 157.996c0 44.667 13.998 83.333 41.998 116
c32 37.333 75.333 56 130 56c44.667 0 83.334 -17 116.001 -51s49 -72 49 -114c0 -56.667 -17 -101 -51 -133c-31.333 -29.333 -71.666 -44 -120.999 -44c-44 0 -82.5 16.167 -115.5 48.5s-49.5 72.833 -49.5 121.5zM475.999 157.995c0 -14 4.33301 -24.667 13 -32
s18.667 -11 30 -11c12.667 0 23 3.5 31 10.5s12 17.833 12 32.5c0 13.333 -4.16699 23.833 -12.5 31.5s-18.5 11.5 -30.5 11.5c-11.333 0 -21.333 -3.66699 -30 -11s-13 -18 -13 -32zM76.999 -5.00488l435 665h100l-437 -665h-98z" />
    <glyph glyph-name="quotedblleft" unicode="&#x201c;" horiz-adv-x="854" 
d="M100 553h-100v93h316v-93h-108v-285h-108v285zM392 646h144l79 -215l79 215h150v-378h-100v249l-84 -249h-81l-84 249v-249h-103v378z" />
    <glyph glyph-name="quotedblright" unicode="&#x201d;" horiz-adv-x="323" 
d="M5 395v251h122v-251h-122zM177 395v251h122v-251h-122z" />
    <glyph glyph-name="bullet" unicode="&#x2022;" horiz-adv-x="261" 
d="M2 538l36 122l213 -107l-14 -58z" />
    <glyph glyph-name="guilsinglleft" unicode="&#x2039;" horiz-adv-x="486" 
d="M156 232h7l308 112v130l-464 -187v-115l464 -198v129z" />
    <glyph glyph-name="guilsinglright" unicode="&#x203a;" horiz-adv-x="467" 
d="M306 232l-308 127v129l459 -201v-115l-459 -191v122z" />
    <glyph glyph-name="fraction" unicode="&#x2215;" horiz-adv-x="424" 
d="M0 -5l292 658h122l-294 -658h-120z" />
    <glyph glyph-name=".null" horiz-adv-x="0" 
 />
    <glyph glyph-name="nonmarkingreturn" horiz-adv-x="0" 
 />
  </font>
</defs>
</svg>
