<?xml version="1.0" encoding="utf-8"?>
<!-- Generator: Adobe Illustrator 16.2.1, SVG Export Plug-In . SVG Version: 6.00 Build 0)  -->
<!DOCTYPE svg PUBLIC "-//W3C//DTD SVG 1.1//EN" "http://www.w3.org/Graphics/SVG/1.1/DTD/svg11.dtd">
<svg version="1.1" id="RU" xmlns="http://www.w3.org/2000/svg" xmlns:xlink="http://www.w3.org/1999/xlink" x="0px" y="0px"
	 width="109.25px" height="40px" viewBox="0 0 109.25 40" enable-background="new 0 0 109.25 40" xml:space="preserve">
<g>
	<path fill="#A6A6A6" d="M99.721,0H9.536C9.168,0,8.806,0,8.44,0.002C8.134,0.004,7.831,0.01,7.522,0.016
		c-0.666,0.016-1.34,0.057-2.004,0.176C4.848,0.309,4.226,0.51,3.617,0.818c-0.599,0.307-1.146,0.705-1.618,1.18
		C1.52,2.471,1.124,3.02,0.82,3.619C0.508,4.227,0.311,4.852,0.195,5.521c-0.12,0.662-0.162,1.332-0.179,2.002
		C0.006,7.83,0.005,8.139,0,8.445C0,8.807,0,9.17,0,9.537v20.928c0,0.369,0,0.73,0,1.094c0.005,0.311,0.006,0.611,0.016,0.922
		c0.017,0.67,0.059,1.34,0.179,2.002c0.116,0.67,0.313,1.299,0.625,1.904c0.304,0.596,0.7,1.145,1.179,1.615
		c0.473,0.477,1.02,0.875,1.618,1.178c0.609,0.312,1.231,0.51,1.901,0.631c0.664,0.119,1.338,0.158,2.004,0.178
		c0.309,0.006,0.612,0.01,0.918,0.01C8.806,40,9.168,40,9.536,40h90.185c0.359,0,0.725,0,1.084-0.002
		c0.305,0,0.617-0.004,0.922-0.01c0.67-0.02,1.342-0.059,2-0.178c0.67-0.121,1.293-0.318,1.908-0.631
		c0.598-0.303,1.145-0.701,1.617-1.178c0.477-0.471,0.873-1.02,1.182-1.615c0.307-0.605,0.506-1.234,0.619-1.904
		c0.123-0.662,0.162-1.332,0.186-2.002c0.004-0.311,0.004-0.611,0.004-0.922c0.008-0.363,0.008-0.725,0.008-1.094V9.537
		c0-0.367,0-0.73-0.008-1.092c0-0.307,0-0.615-0.004-0.922c-0.023-0.67-0.062-1.34-0.186-2.002c-0.113-0.67-0.312-1.295-0.619-1.902
		c-0.309-0.6-0.705-1.148-1.182-1.621c-0.473-0.475-1.02-0.873-1.617-1.18c-0.615-0.309-1.238-0.51-1.908-0.627
		c-0.658-0.119-1.33-0.16-2-0.176c-0.305-0.006-0.617-0.012-0.922-0.014C100.445,0,100.08,0,99.721,0L99.721,0z"/>
	<path d="M8.446,39.125c-0.305,0-0.603-0.004-0.904-0.01c-0.56-0.016-1.223-0.047-1.869-0.164c-0.611-0.109-1.153-0.289-1.657-0.547
		c-0.521-0.266-0.99-0.607-1.397-1.018c-0.414-0.406-0.754-0.873-1.02-1.396c-0.26-0.504-0.438-1.047-0.543-1.656
		c-0.123-0.674-0.154-1.355-0.167-1.875c-0.007-0.211-0.015-0.914-0.015-0.914v-23.1c0,0,0.009-0.691,0.015-0.895
		c0.013-0.524,0.044-1.207,0.165-1.873c0.107-0.613,0.285-1.154,0.544-1.662c0.266-0.523,0.606-0.993,1.015-1.397
		c0.414-0.414,0.885-0.757,1.402-1.022C4.528,1.335,5.07,1.156,5.668,1.052C6.341,0.932,7.024,0.9,7.543,0.888l0.902-0.013h92.355
		l0.912,0.014c0.514,0.012,1.195,0.043,1.859,0.162c0.602,0.105,1.146,0.285,1.67,0.548c0.514,0.263,0.982,0.605,1.393,1.016
		c0.408,0.406,0.752,0.878,1.023,1.404c0.258,0.511,0.434,1.053,0.535,1.649c0.115,0.631,0.152,1.278,0.174,1.887
		c0.002,0.283,0.002,0.588,0.002,0.891c0.008,0.375,0.008,0.731,0.008,1.092v20.928c0,0.363,0,0.719-0.008,1.076
		c0,0.324,0,0.623-0.004,0.93c-0.02,0.588-0.057,1.236-0.17,1.854c-0.104,0.613-0.279,1.154-0.541,1.67
		c-0.27,0.52-0.611,0.988-1.016,1.385c-0.412,0.418-0.881,0.76-1.398,1.023c-0.52,0.264-1.049,0.438-1.668,0.549
		c-0.641,0.117-1.305,0.148-1.869,0.164c-0.293,0.006-0.6,0.01-0.898,0.01l-1.084,0.002L8.446,39.125z"/>
	<g>
		<g>
			<g>
				<g>
					<path fill="#FFFFFF" d="M35.665,28.897h2.714v-10.79h-2.714V28.897z M37.031,13.206c-0.473,0-0.854,0.142-1.161,0.435
						c-0.303,0.289-0.453,0.663-0.453,1.114c0,0.459,0.145,0.822,0.443,1.115c0.298,0.292,0.671,0.434,1.126,0.434
						c0.482,0,0.883-0.142,1.188-0.425c0.305-0.284,0.453-0.65,0.453-1.124c0-0.451-0.152-0.825-0.455-1.114
						C37.865,13.348,37.492,13.206,37.031,13.206z"/>
				</g>
				<g>
					<path fill="#FFFFFF" d="M44.05,28.897h2.715V16.191h4.202v-2.266H39.89v2.266h4.16V28.897z"/>
				</g>
				<g>
					<path fill="#FFFFFF" d="M51.151,18.107v6.361c0,1.616,0.361,2.836,1.076,3.627c0.623,0.694,1.443,1.048,2.536,1.048
						c1.532,0,2.563-0.526,3.479-1.845l0.029-0.045h0.07l0.139,1.644h2.375c-0.055-1.097-0.086-2.183-0.086-3.237v-7.553h-2.713
						v6.526c0,0.321-0.049,0.612-0.141,0.86c-0.393,0.948-1.078,1.428-2.045,1.428c-1.331,0-2.005-0.989-2.005-2.94v-5.874H51.151z"
						/>
				</g>
				<g>
					<path fill="#FFFFFF" d="M70.713,28.897h2.717v-6.451c0-1.544-0.383-2.733-1.141-3.536c-0.666-0.682-1.574-1.026-2.633-1.026
						c-1.496,0-2.482,0.422-3.344,1.715l-0.025,0.046h-0.074l-0.131-1.535l-2.424-0.002c0.057,1.16,0.086,2.247,0.086,3.235v7.555
						h2.715v-6.341c0-0.663,0.203-1.25,0.607-1.744c0.402-0.499,0.949-0.752,1.621-0.752c1.346,0,2.025,0.915,2.025,2.722V28.897z"
						/>
				</g>
				<g>
					<path fill="#FFFFFF" d="M81.146,17.859c-1.627,0-2.943,0.596-3.91,1.766c-0.883,1.089-1.328,2.437-1.328,4.013
						c0,1.676,0.492,3.018,1.469,3.992c0.973,0.975,2.34,1.468,4.059,1.468c1.404,0,2.646-0.215,3.695-0.637l-0.391-1.823
						c-0.877,0.309-1.846,0.464-2.877,0.464c-0.93,0-1.705-0.225-2.305-0.67c-0.648-0.479-1-1.184-1.049-2.093l-0.004-0.099h7.148
						c0.049-0.31,0.076-0.696,0.076-1.143c0-1.414-0.344-2.606-1.018-3.544C83.91,18.431,82.709,17.859,81.146,17.859z
						 M83.191,22.403h-4.689l0.01-0.101c0.062-0.676,0.279-1.258,0.648-1.736c0.451-0.604,1.059-0.912,1.805-0.912
						c0.793,0,1.396,0.317,1.787,0.942c0.293,0.478,0.439,1.055,0.439,1.714V22.403z"/>
				</g>
				<g>
					<path fill="#FFFFFF" d="M87.75,28.402c0.871,0.477,1.953,0.719,3.221,0.719c1.381,0,2.48-0.319,3.27-0.945
						c0.736-0.594,1.113-1.41,1.113-2.427c-0.016-1.478-0.971-2.576-2.842-3.263c-0.693-0.254-1.186-0.492-1.463-0.698
						c-0.291-0.219-0.441-0.506-0.441-0.849c0-0.794,0.523-1.194,1.555-1.194c0.756,0,1.498,0.195,2.213,0.584l0.51-1.86
						c-0.766-0.39-1.705-0.585-2.791-0.585c-1.23,0-2.232,0.32-2.975,0.954c-0.738,0.634-1.115,1.445-1.115,2.416
						c0,1.373,0.994,2.425,2.951,3.128c0.664,0.232,1.111,0.454,1.367,0.681c0.268,0.234,0.404,0.55,0.404,0.937
						c0,0.82-0.592,1.238-1.756,1.238c-0.963,0-1.873-0.249-2.711-0.737L87.75,28.402z"/>
				</g>
			</g>
			<g>
				<path fill="#FFFFFF" d="M28.729,22.995c-0.866-0.846-1.307-1.889-1.319-3.133c-0.027-1.611,0.683-2.867,2.127-3.768
					c-0.814-1.164-2.017-1.816-3.604-1.963c-0.565-0.053-1.287,0.08-2.165,0.398c-0.946,0.342-1.479,0.514-1.598,0.514
					c-0.249,0-0.729-0.145-1.438-0.436c-0.708-0.291-1.312-0.438-1.811-0.438c-0.841,0.014-1.623,0.242-2.345,0.686
					c-0.723,0.441-1.3,1.047-1.733,1.814c-0.552,0.951-0.827,2.088-0.827,3.412c0,1.188,0.203,2.377,0.611,3.566
					c0.38,1.137,0.867,2.137,1.457,2.996c0.524,0.779,0.986,1.347,1.379,1.702c0.565,0.555,1.143,0.822,1.733,0.793
					c0.381-0.012,0.879-0.152,1.498-0.416c0.577-0.25,1.155-0.377,1.732-0.377c0.539,0,1.098,0.127,1.674,0.377
					c0.643,0.264,1.169,0.396,1.575,0.396c0.604-0.025,1.17-0.283,1.695-0.773c0.184-0.158,0.384-0.377,0.6-0.654
					c0.217-0.276,0.457-0.606,0.72-0.989c0.184-0.279,0.363-0.576,0.542-0.893c0.177-0.318,0.339-0.654,0.482-1.014
					c0.065-0.143,0.125-0.293,0.178-0.443c0.052-0.152,0.104-0.307,0.157-0.465C29.563,23.677,29.123,23.378,28.729,22.995
					L28.729,22.995z"/>
				<path fill="#FFFFFF" d="M24.927,12.526c0.696-0.859,1.045-1.785,1.045-2.777c0-0.064,0-0.131,0-0.195
					c0-0.068-0.008-0.135-0.021-0.199c-0.485,0.025-1.001,0.178-1.546,0.455s-0.994,0.629-1.349,1.051
					c-0.708,0.834-1.064,1.725-1.064,2.676c0,0.068,0,0.131,0,0.189c0,0.061,0.006,0.123,0.021,0.189
					C23.102,14.021,24.075,13.558,24.927,12.526L24.927,12.526z"/>
			</g>
		</g>
		<g>
			<g>
				<path fill="#FFFFFF" d="M40.126,3.597V10h-0.817V4.281H36.43V10h-0.817V3.597H40.126z"/>
				<path fill="#FFFFFF" d="M46.063,7.663c0,0.709-0.193,1.286-0.58,1.729c-0.412,0.469-0.963,0.703-1.653,0.703
					c-0.665,0-1.197-0.228-1.596-0.684c-0.374-0.45-0.561-1.007-0.561-1.672c0-0.709,0.193-1.285,0.58-1.729
					c0.412-0.468,0.963-0.703,1.653-0.703c0.671,0,1.204,0.228,1.596,0.684C45.876,6.435,46.063,6.992,46.063,7.663z M45.218,7.691
					c0-0.462-0.107-0.858-0.323-1.188c-0.247-0.386-0.589-0.58-1.026-0.58c-0.443,0-0.792,0.193-1.045,0.58
					c-0.216,0.33-0.323,0.731-0.323,1.207c0,0.456,0.111,0.852,0.333,1.188c0.247,0.386,0.589,0.58,1.026,0.58
					c0.424,0,0.766-0.196,1.026-0.589C45.107,8.54,45.218,8.141,45.218,7.691z"/>
				<path fill="#FFFFFF" d="M48.372,5.402v1.995h0.18l1.691-1.995h1.007l-1.967,2.081c0.368,0.038,0.668,0.176,0.903,0.413
					c0.234,0.238,0.44,0.565,0.617,0.983c0.063,0.152,0.133,0.331,0.209,0.537c0.076,0.206,0.168,0.401,0.276,0.584h-0.865
					c-0.063-0.101-0.131-0.236-0.204-0.404c-0.073-0.167-0.144-0.347-0.214-0.537c-0.158-0.374-0.352-0.647-0.58-0.822
					s-0.532-0.261-0.912-0.261h-0.143V10h-0.817V5.402H48.372z"/>
				<path fill="#FFFFFF" d="M56.123,5.402l-1.216,3.259c-0.152,0.412-0.294,0.768-0.427,1.069c-0.133,0.3-0.25,0.552-0.352,0.755
					c-0.241,0.456-0.498,0.808-0.77,1.055c-0.336,0.297-0.671,0.478-1.007,0.542l-0.218-0.693c0.272-0.089,0.516-0.228,0.731-0.418
					c0.285-0.241,0.51-0.548,0.674-0.922c0.044-0.082,0.067-0.146,0.067-0.19c0-0.038-0.019-0.111-0.057-0.218l-1.653-4.237h0.893
					l0.979,2.717c0.051,0.126,0.098,0.268,0.143,0.423c0.044,0.155,0.092,0.324,0.143,0.508h0.028
					c0.032-0.101,0.07-0.231,0.114-0.389s0.101-0.345,0.171-0.561l0.884-2.698H56.123z"/>
				<path fill="#FFFFFF" d="M61.093,5.402V10h-0.817V6.067h-2.128V10H57.33V5.402H61.093z"/>
				<path fill="#FFFFFF" d="M65.405,10l-0.076-0.57h-0.019c-0.311,0.443-0.77,0.665-1.378,0.665c-0.431,0-0.772-0.133-1.026-0.399
					c-0.234-0.24-0.352-0.544-0.352-0.912c0-0.558,0.229-0.982,0.689-1.273c0.459-0.292,1.119-0.437,1.98-0.437h0.038V6.979
					c0-0.709-0.342-1.064-1.026-1.064c-0.443,0-0.833,0.111-1.168,0.333l-0.19-0.551c0.412-0.259,0.909-0.389,1.492-0.389
					c1.14,0,1.71,0.621,1.71,1.862v1.739c0,0.437,0.024,0.801,0.075,1.092H65.405z M65.272,7.653H65.13
					c-1.166,0-1.748,0.345-1.748,1.036c0,0.266,0.072,0.465,0.219,0.599c0.146,0.133,0.329,0.199,0.551,0.199
					c0.278,0,0.516-0.079,0.712-0.237c0.127-0.101,0.227-0.217,0.3-0.347c0.072-0.13,0.109-0.277,0.109-0.442V7.653z"/>
				<path fill="#FFFFFF" d="M68.645,5.402V7.34c0,0.184,0,0.352,0,0.503c0,0.152-0.002,0.301-0.005,0.447
					c-0.004,0.146-0.008,0.29-0.015,0.432c-0.006,0.143-0.013,0.296-0.019,0.461h0.028c0.063-0.139,0.122-0.266,0.176-0.38
					c0.054-0.114,0.107-0.225,0.161-0.333c0.054-0.108,0.107-0.217,0.162-0.328c0.054-0.11,0.118-0.232,0.194-0.366l1.406-2.375
					h0.969V10h-0.798V8.053c0-0.19,0.001-0.359,0.005-0.508c0.003-0.149,0.006-0.295,0.01-0.437
					c0.003-0.143,0.008-0.288,0.014-0.437s0.013-0.315,0.02-0.499h-0.029c-0.069,0.146-0.134,0.28-0.194,0.404
					s-0.119,0.242-0.176,0.356c-0.057,0.114-0.115,0.225-0.176,0.333c-0.061,0.107-0.122,0.218-0.186,0.333
					c-0.215,0.361-0.443,0.75-0.684,1.168c-0.241,0.418-0.481,0.83-0.722,1.235h-0.932V5.402H68.645z M69.147,3.53
					c0.013,0.203,0.068,0.374,0.166,0.513c0.099,0.14,0.246,0.209,0.442,0.209c0.202,0,0.354-0.068,0.456-0.204
					c0.101-0.136,0.161-0.309,0.181-0.518H71c-0.025,0.393-0.15,0.688-0.375,0.884s-0.521,0.294-0.889,0.294
					c-0.209,0-0.388-0.03-0.536-0.09c-0.149-0.06-0.271-0.144-0.366-0.251c-0.095-0.108-0.166-0.233-0.214-0.375
					c-0.047-0.143-0.074-0.296-0.08-0.461H69.147z"/>
				<path fill="#FFFFFF" d="M76.539,5.402v0.665h-1.406V10h-0.816V6.067H72.92V5.402H76.539z"/>
				<path fill="#FFFFFF" d="M81.431,7.435c0,0.171-0.01,0.307-0.028,0.408h-3.154c0.013,0.507,0.155,0.899,0.428,1.178
					s0.646,0.418,1.121,0.418c0.449,0,0.861-0.076,1.234-0.228L81.174,9.8c-0.418,0.184-0.918,0.276-1.501,0.276
					c-0.342,0-0.649-0.054-0.921-0.162c-0.272-0.108-0.506-0.263-0.698-0.465c-0.193-0.203-0.341-0.445-0.442-0.727
					s-0.151-0.6-0.151-0.955c0-0.709,0.189-1.298,0.569-1.767c0.393-0.469,0.909-0.703,1.549-0.703c0.652,0,1.144,0.25,1.473,0.75
					C81.304,6.435,81.431,6.897,81.431,7.435z M80.633,7.245c0-0.361-0.073-0.656-0.219-0.884c-0.196-0.31-0.497-0.465-0.902-0.465
					c-0.38,0-0.685,0.152-0.912,0.456c-0.184,0.247-0.298,0.545-0.342,0.893H80.633z"/>
				<path fill="#FFFFFF" d="M85.648,5.459c0.158-0.032,0.371-0.057,0.637-0.076s0.532-0.028,0.798-0.028
					c0.19,0,0.4,0.011,0.632,0.033c0.231,0.022,0.448,0.075,0.65,0.157c0.203,0.083,0.374,0.2,0.514,0.352
					c0.139,0.152,0.209,0.355,0.209,0.608c0,0.285-0.096,0.515-0.285,0.689c-0.19,0.174-0.412,0.29-0.665,0.347v0.019
					c0.329,0.051,0.604,0.169,0.821,0.356c0.219,0.187,0.328,0.448,0.328,0.784c0,0.304-0.082,0.544-0.247,0.722
					s-0.367,0.313-0.607,0.409c-0.241,0.095-0.499,0.157-0.774,0.185c-0.275,0.029-0.524,0.043-0.746,0.043
					c-0.253,0-0.497-0.006-0.731-0.019S85.769,10.013,85.648,10V5.459z M86.428,9.449c0.12,0.013,0.227,0.022,0.318,0.028
					s0.204,0.009,0.337,0.009c0.14,0,0.288-0.011,0.446-0.033c0.158-0.022,0.306-0.062,0.442-0.119
					c0.136-0.057,0.248-0.138,0.337-0.242s0.133-0.239,0.133-0.404c0-0.165-0.038-0.299-0.113-0.404
					c-0.076-0.104-0.18-0.187-0.31-0.247c-0.13-0.06-0.28-0.101-0.451-0.124c-0.171-0.022-0.354-0.033-0.551-0.033h-0.589V9.449z
					 M86.438,7.331h0.607c0.152,0,0.301-0.013,0.446-0.038c0.146-0.025,0.276-0.066,0.39-0.124c0.114-0.057,0.206-0.131,0.275-0.223
					c0.07-0.092,0.104-0.204,0.104-0.337c0-0.228-0.097-0.397-0.289-0.508c-0.193-0.11-0.496-0.166-0.907-0.166
					c-0.14,0-0.254,0.003-0.343,0.009c-0.088,0.006-0.184,0.016-0.284,0.029V7.331z"/>
			</g>
		</g>
	</g>
</g>
<g>
</g>
<g>
</g>
<g>
</g>
<g>
</g>
<g>
</g>
<g>
</g>
</svg>
